<svg width="17" height="17" viewBox="0 0 17 17" fill="none" xmlns="http://www.w3.org/2000/svg">
    <path d="M7.50677 6.5322C7.01879 7.08147 6.74925 7.79068 6.74925 8.52541C6.74925 9.26015 7.01879 9.96936 7.50677 10.5186" stroke="#868686" stroke-width="1.00189" stroke-linecap="round" stroke-linejoin="round"/>
    <path d="M10.5246 10.5186C11.0126 9.96936 11.2822 9.26015 11.2822 8.52541C11.2822 7.79068 11.0126 7.08147 10.5246 6.5322" stroke="#868686" stroke-width="1.00189" stroke-linecap="round" stroke-linejoin="round"/>
    <path d="M5.91331 4.93918C5.00414 5.91184 4.4984 7.19355 4.4984 8.52496C4.4984 9.85637 5.00414 11.1381 5.91331 12.1107" stroke="#868686" stroke-width="1.00189" stroke-linecap="round" stroke-linejoin="round"/>
    <path d="M12.1167 12.1107C13.0258 11.1381 13.5316 9.85637 13.5316 8.52496C13.5316 7.19355 13.0258 5.91184 12.1167 4.93918" stroke="#868686" stroke-width="1.00189" stroke-linecap="round" stroke-linejoin="round"/>
    <path d="M13.8757 13.5253C15.1037 12.1489 15.7823 10.3688 15.7823 8.52425C15.7823 6.67968 15.1037 4.89958 13.8757 3.52316" stroke="#868686" stroke-width="1.00189" stroke-linecap="round" stroke-linejoin="round"/>
    <path d="M4.15453 3.52316C2.92656 4.89958 2.24791 6.67968 2.24791 8.52425C2.24791 10.3688 2.92656 12.1489 4.15453 13.5253" stroke="#868686" stroke-width="1.00189" stroke-linecap="round" stroke-linejoin="round"/>
</svg>
