<svg width="30" height="80" viewBox="0 0 30 88" fill="none" xmlns="http://www.w3.org/2000/svg">
    <rect x="15.2632" y="46.3618" width="9" height="43.0708" transform="rotate(180 15.2632 46.3618)"
          fill="#677272"/>
    <rect x="12.2632" y="46.3618" width="3" height="43.0708" transform="rotate(180 12.2632 46.3618)"
          fill="white"/>
    <rect x="15.2632" y="31.2915" width="48" height="9" transform="rotate(90 15.2632 31.2915)" fill="#677272"/>
    <rect x="12.2632" y="31.2915" width="48" height="3" transform="rotate(90 12.2632 31.2915)" fill="white"/>
    <path d="M10.7632 87.1562L2.53594 72.9062L18.9904 72.9062L10.7632 87.1562Z" fill="#677272"/>
    <path fill-rule="evenodd" clip-rule="evenodd"
          d="M5.43207 3.34113C4.24075 3.4003 3.56059 3.82242 3.34181 4.1037C2.83321 4.75763 1.89079 4.87543 1.23687 4.36682C0.582952 3.85822 0.46515 2.9158 0.973755 2.26188C1.92165 1.04316 3.59132 0.428863 5.28324 0.344825C7.03634 0.257749 9.04854 0.714799 10.9556 1.91255C14.4612 4.11433 16.783 3.0341 17.5367 2.18625C18.087 1.56707 19.0352 1.5113 19.6543 2.06168C20.2735 2.61206 20.3293 3.56017 19.7789 4.17934C17.8659 6.33149 13.8544 7.27581 9.35998 4.45304C7.96668 3.57795 6.56222 3.285 5.43207 3.34113Z"
          fill="#677272"/>
    <path d="M18.0535 68.9905L22.0856 62.1269L26.1178 68.9905H18.0535Z" stroke="#677272" stroke-width="2.5"/>
    <path d="M26.1174 54.5446L22.0853 61.4082L18.0531 54.5446L26.1174 54.5446Z" stroke="#677272"
          stroke-width="2.5"/>
</svg>