<svg width="189" height="193" viewBox="0 0 189 193" fill="none" xmlns="http://www.w3.org/2000/svg">
    <rect x="54.8259" y="100.074" width="79" height="92" fill="#B3B9B9"/>
    <path d="M0.825928 32.0745L54.813 100.074H134.75L188.826 32.0745V0.0744629H0.825928V32.0745Z"
          fill="#B3B9B9"/>
    <g clip-path="url(#clip0_371_17761)">
        <rect width="79" height="12" transform="matrix(-1 0 0 1 133.826 148.074)" fill="#F5F5F5"/>
        <line y1="-1" x2="103.101" y2="-1"
              transform="matrix(-0.814647 0.579958 0.368052 0.929805 199.434 91.0845)" stroke="#B3B9B9"
              stroke-width="2"/>
        <line y1="-1" x2="103.101" y2="-1"
              transform="matrix(-0.814647 0.579958 0.368052 0.929805 115.434 91.0845)" stroke="#B3B9B9"
              stroke-width="2"/>
        <line y1="-1" x2="103.101" y2="-1" transform="matrix(-0.814647 0.579958 0.368052 0.929805 199.434 95.688)"
              stroke="#B3B9B9" stroke-width="2"/>
        <line y1="-1" x2="103.101" y2="-1" transform="matrix(-0.814647 0.579958 0.368052 0.929805 115.434 95.688)"
              stroke="#B3B9B9" stroke-width="2"/>
        <line y1="-1" x2="103.101" y2="-1"
              transform="matrix(-0.814647 0.579958 0.368052 0.929805 199.434 100.292)" stroke="#B3B9B9"
              stroke-width="2"/>
        <line y1="-1" x2="103.101" y2="-1"
              transform="matrix(-0.814647 0.579958 0.368052 0.929805 115.434 100.292)" stroke="#B3B9B9"
              stroke-width="2"/>
        <line y1="-1" x2="103.101" y2="-1"
              transform="matrix(-0.814647 0.579958 0.368052 0.929805 199.434 104.895)" stroke="#B3B9B9"
              stroke-width="2"/>
        <line y1="-1" x2="103.101" y2="-1"
              transform="matrix(-0.814647 0.579958 0.368052 0.929805 115.434 104.895)" stroke="#B3B9B9"
              stroke-width="2"/>
        <line y1="-1" x2="103.101" y2="-1" transform="matrix(-0.814647 0.579958 0.368052 0.929805 199.434 109.5)"
              stroke="#B3B9B9" stroke-width="2"/>
        <line y1="-1" x2="103.101" y2="-1" transform="matrix(-0.814647 0.579958 0.368052 0.929805 115.434 109.5)"
              stroke="#B3B9B9" stroke-width="2"/>
        <line y1="-1" x2="103.101" y2="-1"
              transform="matrix(-0.814647 0.579958 0.368052 0.929805 199.434 160.141)" stroke="#B3B9B9"
              stroke-width="2"/>
        <line y1="-1" x2="103.101" y2="-1"
              transform="matrix(-0.814647 0.579958 0.368052 0.929805 115.434 160.141)" stroke="#B3B9B9"
              stroke-width="2"/>
        <line y1="-1" x2="103.101" y2="-1"
              transform="matrix(-0.814647 0.579958 0.368052 0.929805 199.434 114.103)" stroke="#B3B9B9"
              stroke-width="2"/>
        <line y1="-1" x2="103.101" y2="-1"
              transform="matrix(-0.814647 0.579958 0.368052 0.929805 115.434 114.103)" stroke="#B3B9B9"
              stroke-width="2"/>
        <line y1="-1" x2="103.101" y2="-1"
              transform="matrix(-0.814647 0.579958 0.368052 0.929805 199.434 118.708)" stroke="#B3B9B9"
              stroke-width="2"/>
        <line y1="-1" x2="103.101" y2="-1"
              transform="matrix(-0.814647 0.579958 0.368052 0.929805 115.434 118.708)" stroke="#B3B9B9"
              stroke-width="2"/>
        <line y1="-1" x2="103.101" y2="-1"
              transform="matrix(-0.814647 0.579958 0.368052 0.929805 199.434 123.311)" stroke="#B3B9B9"
              stroke-width="2"/>
        <line y1="-1" x2="103.101" y2="-1"
              transform="matrix(-0.814647 0.579958 0.368052 0.929805 115.434 123.311)" stroke="#B3B9B9"
              stroke-width="2"/>
        <line y1="-1" x2="103.101" y2="-1"
              transform="matrix(-0.814647 0.579958 0.368052 0.929805 199.434 127.915)" stroke="#B3B9B9"
              stroke-width="2"/>
        <line y1="-1" x2="103.101" y2="-1"
              transform="matrix(-0.814647 0.579958 0.368052 0.929805 115.434 127.915)" stroke="#B3B9B9"
              stroke-width="2"/>
        <line y1="-1" x2="103.101" y2="-1"
              transform="matrix(-0.814647 0.579958 0.368052 0.929805 199.434 132.518)" stroke="#B3B9B9"
              stroke-width="2"/>
        <line y1="-1" x2="103.101" y2="-1"
              transform="matrix(-0.814647 0.579958 0.368052 0.929805 115.434 132.518)" stroke="#B3B9B9"
              stroke-width="2"/>
        <line y1="-1" x2="103.101" y2="-1"
              transform="matrix(-0.814647 0.579958 0.368052 0.929805 199.434 137.122)" stroke="#B3B9B9"
              stroke-width="2"/>
        <line y1="-1" x2="103.101" y2="-1"
              transform="matrix(-0.814647 0.579958 0.368052 0.929805 115.434 137.122)" stroke="#B3B9B9"
              stroke-width="2"/>
        <line y1="-1" x2="103.101" y2="-1"
              transform="matrix(-0.814647 0.579958 0.368052 0.929805 199.434 141.726)" stroke="#B3B9B9"
              stroke-width="2"/>
        <line y1="-1" x2="103.101" y2="-1"
              transform="matrix(-0.814647 0.579958 0.368052 0.929805 115.434 141.726)" stroke="#B3B9B9"
              stroke-width="2"/>
        <line y1="-1" x2="103.101" y2="-1" transform="matrix(-0.814647 0.579958 0.368052 0.929805 199.434 146.33)"
              stroke="#B3B9B9" stroke-width="2"/>
        <line y1="-1" x2="103.101" y2="-1" transform="matrix(-0.814647 0.579958 0.368052 0.929805 115.434 146.33)"
              stroke="#B3B9B9" stroke-width="2"/>
        <line y1="-1" x2="103.101" y2="-1"
              transform="matrix(-0.814647 0.579958 0.368052 0.929805 199.434 150.934)" stroke="#B3B9B9"
              stroke-width="2"/>
        <line y1="-1" x2="103.101" y2="-1"
              transform="matrix(-0.814647 0.579958 0.368052 0.929805 115.434 150.934)" stroke="#B3B9B9"
              stroke-width="2"/>
        <line y1="-1" x2="103.101" y2="-1"
              transform="matrix(-0.814647 0.579958 0.368052 0.929805 199.434 155.538)" stroke="#B3B9B9"
              stroke-width="2"/>
        <line y1="-1" x2="103.101" y2="-1"
              transform="matrix(-0.814647 0.579958 0.368052 0.929805 115.434 155.538)" stroke="#B3B9B9"
              stroke-width="2"/>
    </g>
    <defs>
        <clipPath id="clip0_371_17761">
            <rect width="79" height="12" fill="white" transform="matrix(-1 0 0 1 133.826 148.074)"/>
        </clipPath>
    </defs>
</svg>