<svg width="71" height="252" viewBox="0 0 71 252" fill="none" xmlns="http://www.w3.org/2000/svg">
    <rect x="2.32593" y="1.57446" width="67" height="211" fill="#677272" stroke="#B3B9B9" stroke-width="3"/>
    <rect x="2.82581" y="7.07446" width="65.715" height="4" fill="#B3B9B9"/>
    <rect x="2.82581" y="23.0745" width="65.715" height="4" fill="#B3B9B9"/>
    <rect x="2.82581" y="39.0745" width="65.715" height="4" fill="#B3B9B9"/>
    <rect x="2.82581" y="55.0745" width="65.715" height="4" fill="#B3B9B9"/>
    <rect x="2.82581" y="71.0745" width="65.715" height="4" fill="#B3B9B9"/>
    <rect x="2.82581" y="87.0745" width="65.715" height="4" fill="#B3B9B9"/>
    <rect x="2.82581" y="103.074" width="65.715" height="4" fill="#B3B9B9"/>
    <rect x="2.82581" y="119.074" width="65.715" height="4" fill="#B3B9B9"/>
    <rect x="2.82581" y="135.074" width="65.715" height="4" fill="#B3B9B9"/>
    <rect x="2.82581" y="151.074" width="65.715" height="4" fill="#B3B9B9"/>
    <rect x="2.82581" y="167.074" width="65.715" height="4" fill="#B3B9B9"/>
    <rect x="2.82581" y="183.074" width="65.715" height="4" fill="#B3B9B9"/>
    <rect x="2.82581" y="199.074" width="65.715" height="4" fill="#B3B9B9"/>
    <rect x="2.82581" y="215.074" width="65.715" height="4" fill="#B3B9B9"/>
    <rect x="2.82581" y="231.074" width="65.715" height="4" fill="#B3B9B9"/>
    <rect x="2.82581" y="247.074" width="65.715" height="4" fill="#B3B9B9"/>
</svg>