<svg width="233" height="151" viewBox="0 0 233 151" fill="none" xmlns="http://www.w3.org/2000/svg">
    <rect x="1.82617" y="1.07715" width="230" height="148" rx="9" fill="#E8EAEA"/>
    <rect width="212" height="22" transform="translate(10.8262 10.0771)" fill="white" fill-opacity="0.5"/>
    <path
            d="M73.7297 15.2771V16.4671H69.8097C69.6604 16.4671 69.5437 16.4485 69.4597 16.4111L69.4317 16.4391C69.4597 16.5045 69.4737 16.6211 69.4737 16.7891V25.0771H68.2137V15.2771H73.7297ZM78.4036 18.6091V25.0771H77.2136V20.0371C77.2136 19.9158 77.2369 19.7945 77.2836 19.6731L77.2696 19.6591C77.1949 19.6965 77.0642 19.7151 76.8776 19.7151H74.8896C74.7122 19.7151 74.5816 19.6965 74.4976 19.6591L74.4836 19.6731C74.5302 19.7665 74.5536 19.8878 74.5536 20.0371V23.0331C74.5536 24.4238 73.9049 25.1191 72.6076 25.1191H72.0476V24.0411H72.5936C72.8736 24.0411 73.0742 23.9618 73.1956 23.8031C73.3169 23.6351 73.3776 23.3645 73.3776 22.9911V18.6091H78.4036ZM82.7624 18.3991C83.6864 18.3991 84.363 18.6091 84.7924 19.0291C85.231 19.4491 85.4504 20.1071 85.4504 21.0031V25.0771H84.2464C84.2464 24.7131 84.3024 24.3491 84.4144 23.9851L84.3724 23.9571C83.887 24.8438 83.131 25.2871 82.1044 25.2871C81.3857 25.2871 80.807 25.0771 80.3684 24.6571C79.9297 24.2371 79.7104 23.6865 79.7104 23.0051C79.7104 22.3051 79.9297 21.7498 80.3684 21.3391C80.807 20.9285 81.3904 20.7231 82.1184 20.7231C83.1637 20.7231 83.9104 21.1151 84.3584 21.8991L84.4004 21.8711C84.3444 21.6845 84.307 21.3625 84.2884 20.9051C84.251 19.9718 83.7144 19.5051 82.6784 19.5051C82.137 19.5051 81.4884 19.6265 80.7324 19.8691L80.3964 18.7911C81.2084 18.5298 81.997 18.3991 82.7624 18.3991ZM82.5104 21.7171C82.053 21.7171 81.6797 21.8385 81.3904 22.0811C81.1104 22.3238 80.9704 22.6365 80.9704 23.0191C80.9704 23.4111 81.1104 23.7238 81.3904 23.9571C81.6704 24.1811 82.0437 24.2931 82.5104 24.2931C82.9864 24.2931 83.383 24.1718 83.7004 23.9291C84.0177 23.6865 84.1764 23.3785 84.1764 23.0051C84.1764 22.6318 84.0177 22.3238 83.7004 22.0811C83.383 21.8385 82.9864 21.7171 82.5104 21.7171ZM91.6934 21.8431C92.3374 22.0391 92.6594 22.5245 92.6594 23.2991C92.6594 23.8405 92.468 24.2745 92.0854 24.6011C91.7027 24.9185 91.2034 25.0771 90.5874 25.0771H87.2554V18.6091H90.5594C91.166 18.6091 91.6327 18.7491 91.9594 19.0291C92.2954 19.3091 92.4634 19.7011 92.4634 20.2051C92.4634 20.8398 92.2114 21.2738 91.7074 21.5071C91.4927 21.6098 91.2174 21.6705 90.8814 21.6891V21.7451C91.1987 21.7545 91.4694 21.7871 91.6934 21.8431ZM88.3754 19.6451C88.422 19.7385 88.4454 19.8691 88.4454 20.0371V20.9751C88.4454 21.1058 88.422 21.2318 88.3754 21.3531L88.3894 21.3671C88.464 21.3298 88.59 21.3111 88.7674 21.3111H90.1254C90.452 21.3111 90.704 21.2365 90.8814 21.0871C91.0587 20.9285 91.1474 20.7185 91.1474 20.4571C91.1474 19.9438 90.83 19.6871 90.1954 19.6871H88.7814C88.5947 19.6871 88.464 19.6685 88.3894 19.6311L88.3754 19.6451ZM90.3634 23.9991C91.0167 23.9991 91.3434 23.7051 91.3434 23.1171C91.3434 22.5291 90.9934 22.2351 90.2934 22.2351H88.7674C88.59 22.2351 88.464 22.2118 88.3894 22.1651L88.3754 22.1791C88.422 22.3005 88.4454 22.4265 88.4454 22.5571V23.6771C88.4454 23.7985 88.422 23.9198 88.3754 24.0411L88.3894 24.0551C88.464 24.0178 88.5947 23.9991 88.7814 23.9991H90.3634ZM98.782 18.6091H99.972V25.0771H98.782V22.4871C98.782 22.3378 98.8053 22.2165 98.852 22.1231L98.838 22.1091C98.7633 22.1465 98.6326 22.1651 98.446 22.1651H95.576C95.3986 22.1651 95.2726 22.1465 95.198 22.1091L95.184 22.1231C95.2306 22.2165 95.254 22.3378 95.254 22.4871V25.0771H94.064V18.6091H95.254V20.7371C95.254 20.8958 95.2306 21.0218 95.184 21.1151L95.198 21.1291C95.2726 21.0918 95.3986 21.0731 95.576 21.0731H98.446C98.6326 21.0731 98.7633 21.0918 98.838 21.1291L98.852 21.1151C98.8053 21.0218 98.782 20.8958 98.782 20.7371V18.6091ZM104.769 20.9331C105.451 20.9331 105.992 21.1198 106.393 21.4931C106.795 21.8571 106.995 22.3611 106.995 23.0051C106.995 23.6305 106.785 24.1345 106.365 24.5171C105.955 24.8905 105.418 25.0771 104.755 25.0771H101.843V18.6091H103.033V20.6111C103.033 20.7325 103.01 20.8538 102.963 20.9751L102.977 20.9891C103.052 20.9518 103.178 20.9331 103.355 20.9331H104.769ZM107.569 18.6091H108.759V25.0771H107.569V18.6091ZM104.671 23.9711C105.007 23.9711 105.269 23.8871 105.455 23.7191C105.651 23.5511 105.749 23.3178 105.749 23.0191C105.749 22.7111 105.656 22.4731 105.469 22.3051C105.283 22.1278 105.017 22.0391 104.671 22.0391H103.355C103.178 22.0391 103.052 22.0205 102.977 21.9831L102.963 21.9971C103.01 22.1185 103.033 22.2398 103.033 22.3611V23.6491C103.033 23.7705 103.01 23.8918 102.963 24.0131L102.977 24.0271C103.052 23.9898 103.183 23.9711 103.369 23.9711H104.671ZM115.534 15.9071C115.534 16.5418 115.357 17.0411 115.002 17.4051C114.648 17.7598 114.186 17.9371 113.616 17.9371C113.038 17.9371 112.571 17.7598 112.216 17.4051C111.862 17.0411 111.684 16.5418 111.684 15.9071H112.538C112.566 16.7098 112.926 17.1111 113.616 17.1111C114.307 17.1111 114.666 16.7098 114.694 15.9071H115.534ZM110.634 25.1751V18.6091H111.824V21.4091C111.824 22.0251 111.801 22.5665 111.754 23.0331L111.796 23.0471C111.936 22.7578 112.179 22.4311 112.524 22.0671L115.954 18.5111H116.304V25.0771H115.128V22.2771C115.128 21.6611 115.152 21.1198 115.198 20.6531L115.142 20.6391C115.03 20.8911 114.792 21.2178 114.428 21.6191L110.998 25.1751H110.634ZM128.033 18.6091V25.0771H126.843V20.0371C126.843 19.8878 126.866 19.7665 126.913 19.6731L126.899 19.6591C126.824 19.6965 126.693 19.7151 126.507 19.7151H123.903C123.716 19.7151 123.585 19.6965 123.511 19.6591L123.497 19.6731C123.543 19.7665 123.567 19.8878 123.567 20.0371V25.0771H122.377V18.6091H128.033ZM133.483 18.3991C134.417 18.3991 135.177 18.7211 135.765 19.3651C136.353 20.0091 136.647 20.8351 136.647 21.8431C136.647 22.8511 136.353 23.6771 135.765 24.3211C135.177 24.9651 134.417 25.2871 133.483 25.2871C132.289 25.2871 131.444 24.7505 130.949 23.6771L130.893 23.6911C130.987 24.0085 131.033 24.4658 131.033 25.0631V27.8771H129.843V18.6091H130.991C130.991 19.2625 130.963 19.7291 130.907 20.0091L130.963 20.0231C131.458 18.9405 132.298 18.3991 133.483 18.3991ZM133.259 19.5191C132.587 19.5191 132.037 19.7385 131.607 20.1771C131.187 20.6065 130.977 21.1618 130.977 21.8431C130.977 22.5338 131.187 23.0938 131.607 23.5231C132.037 23.9525 132.592 24.1671 133.273 24.1671C133.927 24.1671 134.445 23.9618 134.827 23.5511C135.21 23.1311 135.401 22.5618 135.401 21.8431C135.401 21.1338 135.21 20.5691 134.827 20.1491C134.445 19.7291 133.922 19.5191 133.259 19.5191ZM138.046 25.1751V18.6091H139.236V21.4091C139.236 22.0251 139.213 22.5665 139.166 23.0331L139.208 23.0471C139.348 22.7578 139.591 22.4311 139.936 22.0671L143.366 18.5111H143.716V25.0771H142.54V22.2771C142.54 21.6611 142.564 21.1198 142.61 20.6531L142.554 20.6391C142.442 20.8911 142.204 21.2178 141.84 21.6191L138.41 25.1751H138.046ZM150.031 21.8431C150.675 22.0391 150.997 22.5245 150.997 23.2991C150.997 23.8405 150.806 24.2745 150.423 24.6011C150.041 24.9185 149.541 25.0771 148.925 25.0771H145.593V18.6091H148.897C149.504 18.6091 149.971 18.7491 150.297 19.0291C150.633 19.3091 150.801 19.7011 150.801 20.2051C150.801 20.8398 150.549 21.2738 150.045 21.5071C149.831 21.6098 149.555 21.6705 149.219 21.6891V21.7451C149.537 21.7545 149.807 21.7871 150.031 21.8431ZM146.713 19.6451C146.76 19.7385 146.783 19.8691 146.783 20.0371V20.9751C146.783 21.1058 146.76 21.2318 146.713 21.3531L146.727 21.3671C146.802 21.3298 146.928 21.3111 147.105 21.3111H148.463C148.79 21.3111 149.042 21.2365 149.219 21.0871C149.397 20.9285 149.485 20.7185 149.485 20.4571C149.485 19.9438 149.168 19.6871 148.533 19.6871H147.119C146.933 19.6871 146.802 19.6685 146.727 19.6311L146.713 19.6451ZM148.701 23.9991C149.355 23.9991 149.681 23.7051 149.681 23.1171C149.681 22.5291 149.331 22.2351 148.631 22.2351H147.105C146.928 22.2351 146.802 22.2118 146.727 22.1651L146.713 22.1791C146.76 22.3005 146.783 22.4265 146.783 22.5571V23.6771C146.783 23.7985 146.76 23.9198 146.713 24.0411L146.727 24.0551C146.802 24.0178 146.933 23.9991 147.119 23.9991H148.701ZM152.92 19.3791C153.592 18.7258 154.437 18.3991 155.454 18.3991C156.471 18.3991 157.311 18.7258 157.974 19.3791C158.637 20.0231 158.968 20.8445 158.968 21.8431C158.968 22.8418 158.637 23.6678 157.974 24.3211C157.311 24.9651 156.471 25.2871 155.454 25.2871C154.437 25.2871 153.592 24.9651 152.92 24.3211C152.257 23.6678 151.926 22.8418 151.926 21.8431C151.926 20.8445 152.257 20.0231 152.92 19.3791ZM157.092 20.1911C156.672 19.7711 156.126 19.5611 155.454 19.5611C154.782 19.5611 154.236 19.7711 153.816 20.1911C153.396 20.6111 153.186 21.1618 153.186 21.8431C153.186 22.5245 153.396 23.0751 153.816 23.4951C154.236 23.9151 154.782 24.1251 155.454 24.1251C156.126 24.1251 156.672 23.9151 157.092 23.4951C157.512 23.0751 157.722 22.5245 157.722 21.8431C157.722 21.1618 157.512 20.6111 157.092 20.1911ZM159.233 27.0371V23.9851H159.751C159.901 23.9851 160.013 24.0038 160.087 24.0411L160.101 24.0271C160.092 23.9338 160.12 23.8171 160.185 23.6771C160.811 22.5105 161.123 21.2645 161.123 19.9391V18.6091H165.449V23.6631C165.449 23.7845 165.426 23.9058 165.379 24.0271L165.393 24.0411C165.468 24.0038 165.599 23.9851 165.785 23.9851H166.191V27.0371H165.113V25.4131C165.113 25.2918 165.137 25.1705 165.183 25.0491L165.169 25.0351C165.085 25.0725 164.955 25.0911 164.777 25.0911H160.661C160.484 25.0911 160.353 25.0725 160.269 25.0351L160.255 25.0491C160.302 25.1425 160.325 25.2638 160.325 25.4131V27.0371H159.233ZM161.235 24.0551C161.329 24.0085 161.464 23.9851 161.641 23.9851H163.993C164.18 23.9851 164.311 24.0038 164.385 24.0411L164.399 24.0271C164.353 23.9058 164.329 23.7845 164.329 23.6631V19.9951C164.329 19.8738 164.353 19.7525 164.399 19.6311L164.385 19.6171C164.311 19.6545 164.18 19.6731 163.993 19.6731H162.579C162.402 19.6731 162.271 19.6545 162.187 19.6171L162.173 19.6311C162.22 19.7245 162.243 19.8458 162.243 19.9951V20.3871C162.243 21.0311 162.141 21.7125 161.935 22.4311C161.739 23.1405 161.501 23.6725 161.221 24.0271L161.235 24.0551Z"
            fill="#262626"/>
    <path
            d="M17.0902 49.6771V51.1051H15.0742C14.9302 51.1051 14.8262 51.0891 14.7622 51.0571L14.7382 51.0811C14.7622 51.1371 14.7742 51.2451 14.7742 51.4051V58.0771H13.2382V51.4051C13.2382 51.2691 13.2542 51.1611 13.2862 51.0811L13.2622 51.0571C13.1902 51.0891 13.0862 51.1051 12.9502 51.1051H10.9222V49.6771H17.0902ZM17.1121 53.1811C17.6961 52.6291 18.4321 52.3531 19.3201 52.3531C20.2081 52.3531 20.9401 52.6291 21.5161 53.1811C22.1001 53.7331 22.3921 54.4411 22.3921 55.3051C22.3921 56.1691 22.1001 56.8771 21.5161 57.4291C20.9401 57.9811 20.2081 58.2571 19.3201 58.2571C18.4321 58.2571 17.6961 57.9811 17.1121 57.4291C16.5361 56.8771 16.2481 56.1691 16.2481 55.3051C16.2481 54.4411 16.5361 53.7331 17.1121 53.1811ZM20.4481 54.1771C20.1601 53.8891 19.7841 53.7451 19.3201 53.7451C18.8561 53.7451 18.4801 53.8891 18.1921 54.1771C17.9041 54.4571 17.7601 54.8331 17.7601 55.3051C17.7601 55.7771 17.9041 56.1571 18.1921 56.4451C18.4801 56.7251 18.8561 56.8651 19.3201 56.8651C19.7841 56.8651 20.1601 56.7251 20.4481 56.4451C20.7361 56.1571 20.8801 55.7771 20.8801 55.3051C20.8801 54.8331 20.7361 54.4571 20.4481 54.1771ZM27.7484 58.1131C27.1404 58.1131 26.7604 57.8731 26.6084 57.3931L26.3324 56.4691C26.2684 56.2131 26.1844 56.0331 26.0804 55.9291C25.9764 55.8171 25.8284 55.7611 25.6364 55.7611H25.2284C25.0764 55.7611 24.9524 55.7531 24.8564 55.7371L24.8444 55.7491C24.8844 55.8691 24.9044 56.0371 24.9044 56.2531V58.0771H23.4404V52.5331H24.9044V54.1411C24.9044 54.3411 24.8844 54.5011 24.8444 54.6211L24.8564 54.6331C24.9524 54.6171 25.0764 54.6091 25.2284 54.6091H25.6364C25.8284 54.6091 25.9724 54.5691 26.0684 54.4891C26.1724 54.4011 26.2684 54.2371 26.3564 53.9971L26.7284 53.1091C26.8884 52.7011 27.2564 52.4971 27.8324 52.4971H28.6004V53.7211H28.4204C28.2444 53.7211 28.1084 53.7451 28.0124 53.7931C27.9244 53.8411 27.8484 53.9331 27.7844 54.0691L27.6044 54.5251C27.5244 54.7411 27.3924 54.9011 27.2084 55.0051C27.0324 55.1011 26.7604 55.1531 26.3924 55.1611V55.2091C26.7764 55.2171 27.0564 55.2771 27.2324 55.3891C27.4084 55.4931 27.5324 55.6651 27.6044 55.9051L27.8204 56.5531C27.8844 56.6891 27.9484 56.7811 28.0124 56.8291C28.0844 56.8691 28.2004 56.8891 28.3604 56.8891H28.6004V58.1131H27.7484ZM29.3182 60.0811L29.7622 56.8771H30.9742L29.8942 60.0811H29.3182ZM35.1925 58.0771L39.1165 49.4971H39.2365L43.1605 58.0771H41.9485L40.9045 55.7251H37.4485L36.4045 58.0771H35.1925ZM37.7485 54.8251C37.8925 54.8091 38.1165 54.8011 38.4205 54.8011H39.9325C40.2365 54.8011 40.4605 54.8091 40.6045 54.8251L40.6165 54.8131C40.4965 54.6611 40.3725 54.4331 40.2445 54.1291L39.5005 52.3771C39.3245 51.9211 39.2245 51.5931 39.2005 51.3931H39.1525C39.1285 51.5931 39.0285 51.9211 38.8525 52.3771L38.1085 54.1291C37.9805 54.4331 37.8565 54.6611 37.7365 54.8131L37.7485 54.8251Z"
            fill="black"/>
    <rect x="188.826" y="44.0771" width="34" height="20" rx="4" fill="#414F4F"/>
    <path
            d="M198.697 49.7971C199.673 49.7971 200.429 50.1651 200.965 50.9011C201.509 51.6371 201.781 52.6771 201.781 54.0211C201.781 55.3651 201.509 56.4091 200.965 57.1531C200.429 57.8891 199.673 58.2571 198.697 58.2571C197.721 58.2571 196.961 57.8891 196.417 57.1531C195.881 56.4091 195.613 55.3651 195.613 54.0211C195.613 52.6771 195.881 51.6371 196.417 50.9011C196.953 50.1651 197.713 49.7971 198.697 49.7971ZM198.697 51.1651C198.185 51.1651 197.789 51.4171 197.509 51.9211C197.237 52.4171 197.101 53.1171 197.101 54.0211C197.101 54.9251 197.241 55.6291 197.521 56.1331C197.801 56.6371 198.193 56.8891 198.697 56.8891C199.201 56.8891 199.589 56.6371 199.861 56.1331C200.141 55.6291 200.281 54.9251 200.281 54.0211C200.281 53.1171 200.141 52.4171 199.861 51.9211C199.589 51.4171 199.201 51.1651 198.697 51.1651ZM205.834 49.7971C206.81 49.7971 207.566 50.1651 208.102 50.9011C208.646 51.6371 208.918 52.6771 208.918 54.0211C208.918 55.3651 208.646 56.4091 208.102 57.1531C207.566 57.8891 206.81 58.2571 205.834 58.2571C204.858 58.2571 204.098 57.8891 203.554 57.1531C203.018 56.4091 202.75 55.3651 202.75 54.0211C202.75 52.6771 203.018 51.6371 203.554 50.9011C204.09 50.1651 204.85 49.7971 205.834 49.7971ZM205.834 51.1651C205.322 51.1651 204.926 51.4171 204.646 51.9211C204.374 52.4171 204.238 53.1171 204.238 54.0211C204.238 54.9251 204.378 55.6291 204.658 56.1331C204.938 56.6371 205.33 56.8891 205.834 56.8891C206.338 56.8891 206.726 56.6371 206.998 56.1331C207.278 55.6291 207.418 54.9251 207.418 54.0211C207.418 53.1171 207.278 52.4171 206.998 51.9211C206.726 51.4171 206.338 51.1651 205.834 51.1651ZM212.971 49.7971C213.947 49.7971 214.703 50.1651 215.239 50.9011C215.783 51.6371 216.055 52.6771 216.055 54.0211C216.055 55.3651 215.783 56.4091 215.239 57.1531C214.703 57.8891 213.947 58.2571 212.971 58.2571C211.995 58.2571 211.235 57.8891 210.691 57.1531C210.155 56.4091 209.887 55.3651 209.887 54.0211C209.887 52.6771 210.155 51.6371 210.691 50.9011C211.227 50.1651 211.987 49.7971 212.971 49.7971ZM212.971 51.1651C212.459 51.1651 212.063 51.4171 211.783 51.9211C211.511 52.4171 211.375 53.1171 211.375 54.0211C211.375 54.9251 211.515 55.6291 211.795 56.1331C212.075 56.6371 212.467 56.8891 212.971 56.8891C213.475 56.8891 213.863 56.6371 214.135 56.1331C214.415 55.6291 214.555 54.9251 214.555 54.0211C214.555 53.1171 214.415 52.4171 214.135 51.9211C213.863 51.4171 213.475 51.1651 212.971 51.1651Z"
            fill="white"/>
    <path
            d="M17.0902 72.6771V74.1051H15.0742C14.9302 74.1051 14.8262 74.0891 14.7622 74.0571L14.7382 74.0811C14.7622 74.1371 14.7742 74.2451 14.7742 74.4051V81.0771H13.2382V74.4051C13.2382 74.2691 13.2542 74.1611 13.2862 74.0811L13.2622 74.0571C13.1902 74.0891 13.0862 74.1051 12.9502 74.1051H10.9222V72.6771H17.0902ZM17.1121 76.1811C17.6961 75.6291 18.4321 75.3531 19.3201 75.3531C20.2081 75.3531 20.9401 75.6291 21.5161 76.1811C22.1001 76.7331 22.3921 77.4411 22.3921 78.3051C22.3921 79.1691 22.1001 79.8771 21.5161 80.4291C20.9401 80.9811 20.2081 81.2571 19.3201 81.2571C18.4321 81.2571 17.6961 80.9811 17.1121 80.4291C16.5361 79.8771 16.2481 79.1691 16.2481 78.3051C16.2481 77.4411 16.5361 76.7331 17.1121 76.1811ZM20.4481 77.1771C20.1601 76.8891 19.7841 76.7451 19.3201 76.7451C18.8561 76.7451 18.4801 76.8891 18.1921 77.1771C17.9041 77.4571 17.7601 77.8331 17.7601 78.3051C17.7601 78.7771 17.9041 79.1571 18.1921 79.4451C18.4801 79.7251 18.8561 79.8651 19.3201 79.8651C19.7841 79.8651 20.1601 79.7251 20.4481 79.4451C20.7361 79.1571 20.8801 78.7771 20.8801 78.3051C20.8801 77.8331 20.7361 77.4571 20.4481 77.1771ZM27.7484 81.1131C27.1404 81.1131 26.7604 80.8731 26.6084 80.3931L26.3324 79.4691C26.2684 79.2131 26.1844 79.0331 26.0804 78.9291C25.9764 78.8171 25.8284 78.7611 25.6364 78.7611H25.2284C25.0764 78.7611 24.9524 78.7531 24.8564 78.7371L24.8444 78.7491C24.8844 78.8691 24.9044 79.0371 24.9044 79.2531V81.0771H23.4404V75.5331H24.9044V77.1411C24.9044 77.3411 24.8844 77.5011 24.8444 77.6211L24.8564 77.6331C24.9524 77.6171 25.0764 77.6091 25.2284 77.6091H25.6364C25.8284 77.6091 25.9724 77.5691 26.0684 77.4891C26.1724 77.4011 26.2684 77.2371 26.3564 76.9971L26.7284 76.1091C26.8884 75.7011 27.2564 75.4971 27.8324 75.4971H28.6004V76.7211H28.4204C28.2444 76.7211 28.1084 76.7451 28.0124 76.7931C27.9244 76.8411 27.8484 76.9331 27.7844 77.0691L27.6044 77.5251C27.5244 77.7411 27.3924 77.9011 27.2084 78.0051C27.0324 78.1011 26.7604 78.1531 26.3924 78.1611V78.2091C26.7764 78.2171 27.0564 78.2771 27.2324 78.3891C27.4084 78.4931 27.5324 78.6651 27.6044 78.9051L27.8204 79.5531C27.8844 79.6891 27.9484 79.7811 28.0124 79.8291C28.0844 79.8691 28.2004 79.8891 28.3604 79.8891H28.6004V81.1131H27.7484ZM32.3446 82.7571V79.8651H32.8606C32.9806 79.8651 33.0766 79.8811 33.1486 79.9131L33.1606 79.9011C33.1526 79.8291 33.1766 79.7291 33.2326 79.6011C33.6966 78.7531 33.9286 77.7691 33.9286 76.6491V75.5331H38.1406V79.5891C38.1406 79.6931 38.1206 79.7971 38.0806 79.9011L38.0926 79.9131C38.1646 79.8811 38.2766 79.8651 38.4286 79.8651H38.8846V82.7571H37.5526V81.4131C37.5526 81.3091 37.5726 81.2051 37.6126 81.1011L37.6006 81.0891C37.5286 81.1211 37.4166 81.1371 37.2646 81.1371H33.9646C33.8126 81.1371 33.7006 81.1211 33.6286 81.0891L33.6166 81.1011C33.6566 81.1811 33.6766 81.2851 33.6766 81.4131V82.7571H32.3446ZM34.5646 79.9251C34.6446 79.8851 34.7646 79.8651 34.9246 79.8651H36.4606C36.6126 79.8651 36.7246 79.8811 36.7966 79.9131L36.8086 79.9011C36.7686 79.8211 36.7486 79.7171 36.7486 79.5891V77.0571C36.7486 76.9291 36.7686 76.8251 36.8086 76.7451L36.7966 76.7331C36.7246 76.7651 36.6126 76.7811 36.4606 76.7811H35.5486C35.3966 76.7811 35.2846 76.7651 35.2126 76.7331L35.2006 76.7451C35.2406 76.8251 35.2606 76.9291 35.2606 77.0571V77.3211C35.2606 77.7611 35.1926 78.2291 35.0566 78.7251C34.9206 79.2131 34.7526 79.6051 34.5526 79.9011L34.5646 79.9251ZM43.9755 78.3051C44.5115 78.4651 44.7795 78.8771 44.7795 79.5411C44.7795 80.0291 44.6035 80.4091 44.2515 80.6811C43.9075 80.9451 43.4675 81.0771 42.9315 81.0771H39.8115V75.5331H42.9435C44.0555 75.5331 44.6115 75.9851 44.6115 76.8891C44.6115 77.4251 44.3995 77.7931 43.9755 77.9931C43.7755 78.0971 43.4915 78.1531 43.1235 78.1611V78.2091C43.4835 78.2091 43.7675 78.2411 43.9755 78.3051ZM41.2155 76.6731C41.2555 76.7451 41.2755 76.8531 41.2755 76.9971V77.4651C41.2755 77.5931 41.2555 77.6971 41.2155 77.7771L41.2275 77.7891C41.2995 77.7571 41.4115 77.7411 41.5635 77.7411H42.4635C42.8635 77.7411 43.0635 77.5611 43.0635 77.2011C43.0635 76.8731 42.8595 76.7091 42.4515 76.7091H41.5635C41.4115 76.7091 41.2995 76.6931 41.2275 76.6611L41.2155 76.6731ZM42.5835 79.9011C43.0155 79.9011 43.2315 79.7051 43.2315 79.3131C43.2315 78.9371 43.0155 78.7491 42.5835 78.7491H41.5635C41.4115 78.7491 41.2995 78.7331 41.2275 78.7011L41.2155 78.7131C41.2555 78.7931 41.2755 78.8931 41.2755 79.0131V79.6251C41.2755 79.7531 41.2555 79.8571 41.2155 79.9371L41.2275 79.9491C41.2995 79.9171 41.4115 79.9011 41.5635 79.9011H42.5835ZM45.8232 81.1491V75.5331H47.2872V77.4051C47.2872 77.9811 47.2592 78.4131 47.2032 78.7011L47.2512 78.7131C47.3552 78.5131 47.5672 78.2651 47.8872 77.9691L50.5992 75.4611H51.0192V81.0771H49.5432V79.2051C49.5432 78.6291 49.5712 78.1971 49.6272 77.9091L49.5792 77.8971C49.4752 78.0971 49.2632 78.3451 48.9432 78.6411L46.2312 81.1491H45.8232ZM52.4209 81.0771V75.5331H56.2009V76.8531H54.1729C54.0129 76.8531 53.9009 76.8371 53.8369 76.8051L53.8249 76.8171C53.8649 76.8971 53.8849 77.0011 53.8849 77.1291V81.0771H52.4209ZM58.9794 75.3531C59.8594 75.3531 60.4954 75.5291 60.8874 75.8811C61.2794 76.2331 61.4754 76.8011 61.4754 77.5851V81.0771H59.9874C59.9874 80.7011 60.0474 80.3731 60.1674 80.0931L60.1194 80.0691C59.7114 80.8611 59.0754 81.2571 58.2114 81.2571C57.6194 81.2571 57.1394 81.0811 56.7714 80.7291C56.4114 80.3691 56.2314 79.8971 56.2314 79.3131C56.2314 78.7291 56.4114 78.2651 56.7714 77.9211C57.1394 77.5691 57.6274 77.3931 58.2354 77.3931C59.0834 77.3931 59.7034 77.7131 60.0954 78.3531L60.1434 78.3291C60.0794 78.1371 60.0474 77.8651 60.0474 77.5131C60.0074 76.9211 59.5994 76.6251 58.8234 76.6251C58.3914 76.6251 57.8434 76.7051 57.1794 76.8651L56.8914 75.6291C57.6114 75.4451 58.3074 75.3531 58.9794 75.3531ZM58.7994 78.4011C58.5034 78.4011 58.2634 78.4811 58.0794 78.6411C57.8954 78.8011 57.8034 79.0091 57.8034 79.2651C57.8034 79.5211 57.8914 79.7291 58.0674 79.8891C58.2514 80.0411 58.4914 80.1171 58.7874 80.1171C59.0914 80.1171 59.3394 80.0371 59.5314 79.8771C59.7234 79.7171 59.8194 79.5091 59.8194 79.2531C59.8194 79.0051 59.7234 78.8011 59.5314 78.6411C59.3474 78.4811 59.1034 78.4011 58.7994 78.4011ZM61.9096 75.5331H67.2016V76.8531H65.5816C65.4216 76.8531 65.3096 76.8371 65.2456 76.8051L65.2336 76.8171C65.2736 76.8971 65.2936 77.0011 65.2936 77.1291V81.0771H63.8176V77.1291C63.8176 77.0011 63.8376 76.8971 63.8776 76.8171L63.8656 76.8051C63.8016 76.8371 63.6896 76.8531 63.5296 76.8531H61.9096V75.5331ZM70.2567 75.3531C71.0967 75.3531 71.7567 75.6131 72.2367 76.1331C72.7167 76.6531 72.9567 77.3731 72.9567 78.2931V78.6411H69.5247C69.1887 78.6411 68.9567 78.6011 68.8287 78.5211L68.8047 78.5571L68.8527 78.6891C68.9887 79.5371 69.5087 79.9611 70.4127 79.9611C71.0287 79.9611 71.5767 79.7411 72.0567 79.3011L72.7287 80.3571C72.0647 80.9571 71.2927 81.2571 70.4127 81.2571C69.5007 81.2571 68.7687 80.9931 68.2167 80.4651C67.6647 79.9291 67.3887 79.2131 67.3887 78.3171C67.3887 77.4211 67.6527 76.7051 68.1807 76.1691C68.7087 75.6251 69.4007 75.3531 70.2567 75.3531ZM70.2087 76.5531C69.8327 76.5531 69.5207 76.6611 69.2727 76.8771C69.0247 77.0851 68.8767 77.3731 68.8287 77.7411L68.8527 77.7651C68.9647 77.6931 69.1647 77.6571 69.4527 77.6571H70.7607C71.1447 77.6571 71.3727 77.6891 71.4447 77.7531L71.4687 77.7291C71.4447 77.3531 71.3207 77.0651 71.0967 76.8651C70.8727 76.6571 70.5767 76.5531 70.2087 76.5531ZM78.9919 75.5331V81.0771H77.5159V77.1291C77.5159 77.0251 77.5359 76.9211 77.5759 76.8171L77.5639 76.8051C77.4919 76.8371 77.3799 76.8531 77.2279 76.8531H76.0279C75.8679 76.8531 75.7559 76.8371 75.6919 76.8051L75.6799 76.8171C75.7199 76.9211 75.7399 77.0251 75.7399 77.1291V79.0731C75.7399 80.4251 75.0799 81.1011 73.7599 81.1011H73.1839V79.7931H73.6279C73.8519 79.7931 74.0119 79.7331 74.1079 79.6131C74.2119 79.4851 74.2639 79.2691 74.2639 78.9651V75.5331H78.9919ZM85.1821 75.5331V81.0771H83.7061V79.3731C83.7061 79.2451 83.7261 79.1411 83.7661 79.0611L83.7541 79.0491C83.6981 79.0811 83.5861 79.0971 83.4181 79.0971H83.2261L81.5821 81.0771H79.8181V81.0171L81.1261 79.5891C81.3661 79.3171 81.5981 79.1291 81.8221 79.0251V78.9891C81.6461 79.0211 81.5061 79.0171 81.4021 78.9771C81.0021 78.8811 80.6941 78.6851 80.4781 78.3891C80.2701 78.0851 80.1661 77.7331 80.1661 77.3331C80.1661 76.7651 80.3421 76.3251 80.6941 76.0131C81.0541 75.6931 81.5581 75.5331 82.2061 75.5331H85.1821ZM83.7661 78.0651C83.7261 77.9851 83.7061 77.8811 83.7061 77.7531V76.9731C83.7061 76.8451 83.7261 76.7411 83.7661 76.6611L83.7541 76.6491C83.6821 76.6811 83.5701 76.6971 83.4181 76.6971H82.5661C82.0061 76.6971 81.7261 76.9171 81.7261 77.3571C81.7261 77.8051 82.0061 78.0291 82.5661 78.0291H83.4181C83.5861 78.0291 83.6981 78.0451 83.7541 78.0771L83.7661 78.0651ZM86.365 83.0811L86.809 79.8771H88.021L86.941 83.0811H86.365ZM92.2394 81.0771L96.1634 72.4971H96.2834L100.207 81.0771H98.9954L97.9514 78.7251H94.4954L93.4514 81.0771H92.2394ZM94.7954 77.8251C94.9394 77.8091 95.1634 77.8011 95.4674 77.8011H96.9794C97.2834 77.8011 97.5074 77.8091 97.6514 77.8251L97.6634 77.8131C97.5434 77.6611 97.4194 77.4331 97.2914 77.1291L96.5474 75.3771C96.3714 74.9211 96.2714 74.5931 96.2474 74.3931H96.1994C96.1754 74.5931 96.0754 74.9211 95.8994 75.3771L95.1554 77.1291C95.0274 77.4331 94.9034 77.6611 94.7834 77.8131L94.7954 77.8251Z"
            fill="black"/>
    <rect x="188.826" y="67.0771" width="34" height="20" rx="4" fill="#414F4F"/>
    <path
            d="M198.697 72.7971C199.673 72.7971 200.429 73.1651 200.965 73.9011C201.509 74.6371 201.781 75.6771 201.781 77.0211C201.781 78.3651 201.509 79.4091 200.965 80.1531C200.429 80.8891 199.673 81.2571 198.697 81.2571C197.721 81.2571 196.961 80.8891 196.417 80.1531C195.881 79.4091 195.613 78.3651 195.613 77.0211C195.613 75.6771 195.881 74.6371 196.417 73.9011C196.953 73.1651 197.713 72.7971 198.697 72.7971ZM198.697 74.1651C198.185 74.1651 197.789 74.4171 197.509 74.9211C197.237 75.4171 197.101 76.1171 197.101 77.0211C197.101 77.9251 197.241 78.6291 197.521 79.1331C197.801 79.6371 198.193 79.8891 198.697 79.8891C199.201 79.8891 199.589 79.6371 199.861 79.1331C200.141 78.6291 200.281 77.9251 200.281 77.0211C200.281 76.1171 200.141 75.4171 199.861 74.9211C199.589 74.4171 199.201 74.1651 198.697 74.1651ZM205.834 72.7971C206.81 72.7971 207.566 73.1651 208.102 73.9011C208.646 74.6371 208.918 75.6771 208.918 77.0211C208.918 78.3651 208.646 79.4091 208.102 80.1531C207.566 80.8891 206.81 81.2571 205.834 81.2571C204.858 81.2571 204.098 80.8891 203.554 80.1531C203.018 79.4091 202.75 78.3651 202.75 77.0211C202.75 75.6771 203.018 74.6371 203.554 73.9011C204.09 73.1651 204.85 72.7971 205.834 72.7971ZM205.834 74.1651C205.322 74.1651 204.926 74.4171 204.646 74.9211C204.374 75.4171 204.238 76.1171 204.238 77.0211C204.238 77.9251 204.378 78.6291 204.658 79.1331C204.938 79.6371 205.33 79.8891 205.834 79.8891C206.338 79.8891 206.726 79.6371 206.998 79.1331C207.278 78.6291 207.418 77.9251 207.418 77.0211C207.418 76.1171 207.278 75.4171 206.998 74.9211C206.726 74.4171 206.338 74.1651 205.834 74.1651ZM212.971 72.7971C213.947 72.7971 214.703 73.1651 215.239 73.9011C215.783 74.6371 216.055 75.6771 216.055 77.0211C216.055 78.3651 215.783 79.4091 215.239 80.1531C214.703 80.8891 213.947 81.2571 212.971 81.2571C211.995 81.2571 211.235 80.8891 210.691 80.1531C210.155 79.4091 209.887 78.3651 209.887 77.0211C209.887 75.6771 210.155 74.6371 210.691 73.9011C211.227 73.1651 211.987 72.7971 212.971 72.7971ZM212.971 74.1651C212.459 74.1651 212.063 74.4171 211.783 74.9211C211.511 75.4171 211.375 76.1171 211.375 77.0211C211.375 77.9251 211.515 78.6291 211.795 79.1331C212.075 79.6371 212.467 79.8891 212.971 79.8891C213.475 79.8891 213.863 79.6371 214.135 79.1331C214.415 78.6291 214.555 77.9251 214.555 77.0211C214.555 76.1171 214.415 75.4171 214.135 74.9211C213.863 74.4171 213.475 74.1651 212.971 74.1651Z"
            fill="white"/>
    <path
            d="M18.6622 95.6771V104.077H17.1262V100.657C17.1262 100.489 17.1422 100.377 17.1742 100.321L17.1502 100.297C17.0702 100.337 16.9622 100.357 16.8262 100.357H13.5022C13.3742 100.357 13.2702 100.337 13.1902 100.297L13.1662 100.321C13.1982 100.401 13.2142 100.513 13.2142 100.657V104.077H11.6782V95.6771H13.2142V98.6171C13.2142 98.7611 13.1982 98.8731 13.1662 98.9531L13.1902 98.9771C13.2542 98.9451 13.3582 98.9291 13.5022 98.9291H16.8262C16.9782 98.9291 17.0862 98.9451 17.1502 98.9771L17.1742 98.9531C17.1422 98.8971 17.1262 98.7851 17.1262 98.6171V95.6771H18.6622ZM22.5458 98.3531C23.4258 98.3531 24.0618 98.5291 24.4538 98.8811C24.8458 99.2331 25.0418 99.8011 25.0418 100.585V104.077H23.5538C23.5538 103.701 23.6138 103.373 23.7338 103.093L23.6858 103.069C23.2778 103.861 22.6418 104.257 21.7778 104.257C21.1858 104.257 20.7058 104.081 20.3378 103.729C19.9778 103.369 19.7978 102.897 19.7978 102.313C19.7978 101.729 19.9778 101.265 20.3378 100.921C20.7058 100.569 21.1938 100.393 21.8018 100.393C22.6498 100.393 23.2698 100.713 23.6618 101.353L23.7098 101.329C23.6458 101.137 23.6138 100.865 23.6138 100.513C23.5738 99.9211 23.1658 99.6251 22.3898 99.6251C21.9578 99.6251 21.4098 99.7051 20.7458 99.8651L20.4578 98.6291C21.1778 98.4451 21.8738 98.3531 22.5458 98.3531ZM22.3658 101.401C22.0698 101.401 21.8298 101.481 21.6458 101.641C21.4618 101.801 21.3698 102.009 21.3698 102.265C21.3698 102.521 21.4578 102.729 21.6338 102.889C21.8178 103.041 22.0578 103.117 22.3538 103.117C22.6578 103.117 22.9058 103.037 23.0978 102.877C23.2898 102.717 23.3858 102.509 23.3858 102.253C23.3858 102.005 23.2898 101.801 23.0978 101.641C22.9138 101.481 22.6698 101.401 22.3658 101.401ZM31.6138 98.5331V104.077H30.1378V100.129C30.1378 100.001 30.1578 99.8971 30.1978 99.8171L30.1858 99.8051C30.1218 99.8371 30.0098 99.8531 29.8498 99.8531H28.1098C27.9498 99.8531 27.8378 99.8371 27.7738 99.8051L27.7618 99.8171C27.8018 99.8971 27.8218 100.001 27.8218 100.129V104.077H26.3458V98.5331H31.6138ZM36.4112 98.3531C37.1872 98.3531 37.8192 98.6251 38.3072 99.1691C38.7952 99.7131 39.0392 100.425 39.0392 101.305C39.0392 102.185 38.7952 102.897 38.3072 103.441C37.8272 103.985 37.1992 104.257 36.4232 104.257C35.4392 104.257 34.7592 103.809 34.3832 102.913L34.3352 102.925C34.4072 103.277 34.4432 103.653 34.4432 104.053V106.477H32.9912V98.5331H34.4312C34.4312 99.0131 34.3952 99.3971 34.3232 99.6851L34.3712 99.6971C34.8032 98.8011 35.4832 98.3531 36.4112 98.3531ZM35.9912 99.6971C35.5192 99.6971 35.1352 99.8451 34.8392 100.141C34.5432 100.437 34.3952 100.825 34.3952 101.305C34.3952 101.785 34.5432 102.173 34.8392 102.469C35.1352 102.765 35.5192 102.913 35.9912 102.913C36.4632 102.913 36.8312 102.769 37.0952 102.481C37.3672 102.193 37.5032 101.801 37.5032 101.305C37.5032 100.809 37.3672 100.417 37.0952 100.129C36.8232 99.8411 36.4552 99.6971 35.9912 99.6971ZM44.729 98.5331V104.077H43.253V102.373C43.253 102.245 43.273 102.141 43.313 102.061L43.301 102.049C43.245 102.081 43.133 102.097 42.965 102.097H42.773L41.129 104.077H39.365V104.017L40.673 102.589C40.913 102.317 41.145 102.129 41.369 102.025V101.989C41.193 102.021 41.053 102.017 40.949 101.977C40.549 101.881 40.241 101.685 40.025 101.389C39.817 101.085 39.713 100.733 39.713 100.333C39.713 99.7651 39.889 99.3251 40.241 99.0131C40.601 98.6931 41.105 98.5331 41.753 98.5331H44.729ZM43.313 101.065C43.273 100.985 43.253 100.881 43.253 100.753V99.9731C43.253 99.8451 43.273 99.7411 43.313 99.6611L43.301 99.6491C43.229 99.6811 43.117 99.6971 42.965 99.6971H42.113C41.553 99.6971 41.273 99.9171 41.273 100.357C41.273 100.805 41.553 101.029 42.113 101.029H42.965C43.133 101.029 43.245 101.045 43.301 101.077L43.313 101.065ZM45.6479 104.113V102.913H45.8879C46.0319 102.913 46.1399 102.889 46.2119 102.841C46.2839 102.793 46.3519 102.697 46.4159 102.553L46.6199 101.905C46.6999 101.665 46.8279 101.493 47.0039 101.389C47.1879 101.277 47.4719 101.217 47.8559 101.209V101.161C47.4799 101.153 47.1999 101.097 47.0159 100.993C46.8319 100.889 46.7039 100.733 46.6319 100.525L46.4519 100.069C46.3799 99.9251 46.3039 99.8291 46.2239 99.7811C46.1439 99.7251 46.0319 99.6971 45.8879 99.6971H45.6479V98.4971H46.4159C46.9679 98.4971 47.3319 98.7011 47.5079 99.1091L47.8799 99.9971C47.9759 100.237 48.0679 100.401 48.1559 100.489C48.2519 100.569 48.3919 100.609 48.5759 100.609H48.7439C48.9119 100.609 49.0359 100.617 49.1159 100.633L49.1279 100.621C49.0879 100.461 49.0679 100.301 49.0679 100.141V98.5331H50.4119V100.141C50.4119 100.341 50.3919 100.501 50.3519 100.621L50.3639 100.633C50.4439 100.617 50.5679 100.609 50.7359 100.609H50.9039C51.0959 100.609 51.2359 100.569 51.3239 100.489C51.4199 100.401 51.5159 100.237 51.6119 99.9971L51.9839 99.1091C52.1519 98.7011 52.5159 98.4971 53.0759 98.4971H53.8439V99.6971H53.6039C53.4519 99.6971 53.3359 99.7251 53.2559 99.7811C53.1759 99.8291 53.1039 99.9251 53.0399 100.069L52.8599 100.525C52.7799 100.741 52.6479 100.901 52.4639 101.005C52.2799 101.101 52.0039 101.153 51.6359 101.161V101.209C52.0199 101.217 52.2999 101.273 52.4759 101.377C52.6519 101.481 52.7799 101.657 52.8599 101.905L53.0639 102.553C53.1279 102.697 53.1959 102.793 53.2679 102.841C53.3399 102.889 53.4479 102.913 53.5919 102.913H53.8319V104.113H52.9919C52.3919 104.113 52.0199 103.873 51.8759 103.393L51.5879 102.469C51.5159 102.205 51.4319 102.021 51.3359 101.917C51.2399 101.813 51.0959 101.761 50.9039 101.761H50.7359C50.5679 101.761 50.4439 101.753 50.3639 101.737L50.3519 101.749C50.3919 101.869 50.4119 102.037 50.4119 102.253V104.077H49.0679V102.253C49.0679 102.077 49.0879 101.909 49.1279 101.749L49.1159 101.737C49.0359 101.753 48.9119 101.761 48.7439 101.761H48.5759C48.3839 101.761 48.2399 101.813 48.1439 101.917C48.0479 102.021 47.9639 102.205 47.8919 102.469L47.6159 103.393C47.4639 103.873 47.0919 104.113 46.4999 104.113H45.6479ZM57.12 98.3531C57.96 98.3531 58.62 98.6131 59.1 99.1331C59.58 99.6531 59.82 100.373 59.82 101.293V101.641H56.388C56.052 101.641 55.82 101.601 55.692 101.521L55.668 101.557L55.716 101.689C55.852 102.537 56.372 102.961 57.276 102.961C57.892 102.961 58.44 102.741 58.92 102.301L59.592 103.357C58.928 103.957 58.156 104.257 57.276 104.257C56.364 104.257 55.632 103.993 55.08 103.465C54.528 102.929 54.252 102.213 54.252 101.317C54.252 100.421 54.516 99.7051 55.044 99.1691C55.572 98.6251 56.264 98.3531 57.12 98.3531ZM57.072 99.5531C56.696 99.5531 56.384 99.6611 56.136 99.8771C55.888 100.085 55.74 100.373 55.692 100.741L55.716 100.765C55.828 100.693 56.028 100.657 56.316 100.657H57.624C58.008 100.657 58.236 100.689 58.308 100.753L58.332 100.729C58.308 100.353 58.184 100.065 57.96 99.8651C57.736 99.6571 57.44 99.5531 57.072 99.5531ZM64.735 98.5331H66.211V104.077H64.735V102.049C64.735 101.921 64.755 101.817 64.795 101.737L64.783 101.725C64.719 101.757 64.607 101.773 64.447 101.773H62.587C62.427 101.773 62.315 101.757 62.251 101.725L62.239 101.737C62.279 101.817 62.299 101.921 62.299 102.049V104.077H60.835V98.5331H62.299V100.189C62.299 100.317 62.279 100.421 62.239 100.501L62.251 100.513C62.315 100.481 62.427 100.465 62.587 100.465H64.447C64.607 100.465 64.719 100.481 64.783 100.513L64.795 100.501C64.755 100.421 64.735 100.317 64.735 100.189V98.5331ZM67.6318 104.149V98.5331H69.0958V100.405C69.0958 100.981 69.0678 101.413 69.0118 101.701L69.0598 101.713C69.1638 101.513 69.3758 101.265 69.6958 100.969L72.4078 98.4611H72.8278V104.077H71.3518V102.205C71.3518 101.629 71.3798 101.197 71.4358 100.909L71.3878 100.897C71.2838 101.097 71.0718 101.345 70.7518 101.641L68.0398 104.149H67.6318ZM76.7255 98.3531C77.5655 98.3531 78.2255 98.6131 78.7055 99.1331C79.1855 99.6531 79.4255 100.373 79.4255 101.293V101.641H75.9935C75.6575 101.641 75.4255 101.601 75.2975 101.521L75.2735 101.557L75.3215 101.689C75.4575 102.537 75.9775 102.961 76.8815 102.961C77.4975 102.961 78.0455 102.741 78.5255 102.301L79.1975 103.357C78.5335 103.957 77.7615 104.257 76.8815 104.257C75.9695 104.257 75.2375 103.993 74.6855 103.465C74.1335 102.929 73.8575 102.213 73.8575 101.317C73.8575 100.421 74.1215 99.7051 74.6495 99.1691C75.1775 98.6251 75.8695 98.3531 76.7255 98.3531ZM76.6775 99.5531C76.3015 99.5531 75.9895 99.6611 75.7415 99.8771C75.4935 100.085 75.3455 100.373 75.2975 100.741L75.3215 100.765C75.4335 100.693 75.6335 100.657 75.9215 100.657H77.2295C77.6135 100.657 77.8415 100.689 77.9135 100.753L77.9375 100.729C77.9135 100.353 77.7895 100.065 77.5655 99.8651C77.3415 99.6571 77.0455 99.5531 76.6775 99.5531ZM87.2589 98.3531C88.0349 98.3531 88.6669 98.6251 89.1549 99.1691C89.6429 99.7131 89.8869 100.425 89.8869 101.305C89.8869 102.185 89.6429 102.897 89.1549 103.441C88.6749 103.985 88.0469 104.257 87.2709 104.257C86.2869 104.257 85.6069 103.809 85.2309 102.913L85.1829 102.925C85.2549 103.277 85.2909 103.653 85.2909 104.053V106.477H83.8389V98.5331H85.2789C85.2789 99.0131 85.2429 99.3971 85.1709 99.6851L85.2189 99.6971C85.6509 98.8011 86.3309 98.3531 87.2589 98.3531ZM86.8389 99.6971C86.3669 99.6971 85.9829 99.8451 85.6869 100.141C85.3909 100.437 85.2429 100.825 85.2429 101.305C85.2429 101.785 85.3909 102.173 85.6869 102.469C85.9829 102.765 86.3669 102.913 86.8389 102.913C87.3109 102.913 87.6789 102.769 87.9429 102.481C88.2149 102.193 88.3509 101.801 88.3509 101.305C88.3509 100.809 88.2149 100.417 87.9429 100.129C87.6709 99.8411 87.3029 99.6971 86.8389 99.6971ZM91.4207 99.1811C92.0047 98.6291 92.7407 98.3531 93.6287 98.3531C94.5167 98.3531 95.2487 98.6291 95.8247 99.1811C96.4087 99.7331 96.7007 100.441 96.7007 101.305C96.7007 102.169 96.4087 102.877 95.8247 103.429C95.2487 103.981 94.5167 104.257 93.6287 104.257C92.7407 104.257 92.0047 103.981 91.4207 103.429C90.8447 102.877 90.5567 102.169 90.5567 101.305C90.5567 100.441 90.8447 99.7331 91.4207 99.1811ZM94.7567 100.177C94.4687 99.8891 94.0927 99.7451 93.6287 99.7451C93.1647 99.7451 92.7887 99.8891 92.5007 100.177C92.2127 100.457 92.0687 100.833 92.0687 101.305C92.0687 101.777 92.2127 102.157 92.5007 102.445C92.7887 102.725 93.1647 102.865 93.6287 102.865C94.0927 102.865 94.4687 102.725 94.7567 102.445C95.0447 102.157 95.1887 101.777 95.1887 101.305C95.1887 100.833 95.0447 100.457 94.7567 100.177ZM96.8432 98.5331H102.135V99.8531H100.515C100.355 99.8531 100.243 99.8371 100.179 99.8051L100.167 99.8171C100.207 99.8971 100.227 100.001 100.227 100.129V104.077H98.7512V100.129C98.7512 100.001 98.7712 99.8971 98.8112 99.8171L98.7992 99.8051C98.7352 99.8371 98.6232 99.8531 98.4632 99.8531H96.8432V98.5331ZM105.19 98.3531C106.03 98.3531 106.69 98.6131 107.17 99.1331C107.65 99.6531 107.89 100.373 107.89 101.293V101.641H104.458C104.122 101.641 103.89 101.601 103.762 101.521L103.738 101.557L103.786 101.689C103.922 102.537 104.442 102.961 105.346 102.961C105.962 102.961 106.51 102.741 106.99 102.301L107.662 103.357C106.998 103.957 106.226 104.257 105.346 104.257C104.434 104.257 103.702 103.993 103.15 103.465C102.598 102.929 102.322 102.213 102.322 101.317C102.322 100.421 102.586 99.7051 103.114 99.1691C103.642 98.6251 104.334 98.3531 105.19 98.3531ZM105.142 99.5531C104.766 99.5531 104.454 99.6611 104.206 99.8771C103.958 100.085 103.81 100.373 103.762 100.741L103.786 100.765C103.898 100.693 104.098 100.657 104.386 100.657H105.694C106.078 100.657 106.306 100.689 106.378 100.753L106.402 100.729C106.378 100.353 106.254 100.065 106.03 99.8651C105.806 99.6571 105.51 99.5531 105.142 99.5531ZM112.325 98.3531C113.101 98.3531 113.733 98.6251 114.221 99.1691C114.709 99.7131 114.953 100.425 114.953 101.305C114.953 102.185 114.709 102.897 114.221 103.441C113.741 103.985 113.113 104.257 112.337 104.257C111.353 104.257 110.673 103.809 110.297 102.913L110.249 102.925C110.321 103.277 110.357 103.653 110.357 104.053V106.477H108.905V98.5331H110.345C110.345 99.0131 110.309 99.3971 110.237 99.6851L110.285 99.6971C110.717 98.8011 111.397 98.3531 112.325 98.3531ZM111.905 99.6971C111.433 99.6971 111.049 99.8451 110.753 100.141C110.457 100.437 110.309 100.825 110.309 101.305C110.309 101.785 110.457 102.173 110.753 102.469C111.049 102.765 111.433 102.913 111.905 102.913C112.377 102.913 112.745 102.769 113.009 102.481C113.281 102.193 113.417 101.801 113.417 101.305C113.417 100.809 113.281 100.417 113.009 100.129C112.737 99.8411 112.369 99.6971 111.905 99.6971ZM118.253 98.3531C119.133 98.3531 119.769 98.5291 120.161 98.8811C120.553 99.2331 120.749 99.8011 120.749 100.585V104.077H119.261C119.261 103.701 119.321 103.373 119.441 103.093L119.393 103.069C118.985 103.861 118.349 104.257 117.485 104.257C116.893 104.257 116.413 104.081 116.045 103.729C115.685 103.369 115.505 102.897 115.505 102.313C115.505 101.729 115.685 101.265 116.045 100.921C116.413 100.569 116.901 100.393 117.509 100.393C118.357 100.393 118.977 100.713 119.369 101.353L119.417 101.329C119.353 101.137 119.321 100.865 119.321 100.513C119.281 99.9211 118.873 99.6251 118.097 99.6251C117.665 99.6251 117.117 99.7051 116.453 99.8651L116.165 98.6291C116.885 98.4451 117.581 98.3531 118.253 98.3531ZM118.073 101.401C117.777 101.401 117.537 101.481 117.353 101.641C117.169 101.801 117.077 102.009 117.077 102.265C117.077 102.521 117.165 102.729 117.341 102.889C117.525 103.041 117.765 103.117 118.061 103.117C118.365 103.117 118.613 103.037 118.805 102.877C118.997 102.717 119.093 102.509 119.093 102.253C119.093 102.005 118.997 101.801 118.805 101.641C118.621 101.481 118.377 101.401 118.073 101.401ZM121.873 106.081L122.317 102.877H123.529L122.449 106.081H121.873ZM132.806 104.113C132.198 104.113 131.822 103.861 131.678 103.357L131.402 102.361C131.322 102.081 131.218 101.885 131.09 101.773C130.97 101.653 130.794 101.593 130.562 101.593H129.998C129.83 101.593 129.706 101.585 129.626 101.569L129.614 101.581C129.654 101.757 129.674 101.925 129.674 102.085V104.077H128.654V98.5331H129.674V100.309C129.674 100.453 129.654 100.613 129.614 100.789L129.626 100.801C129.706 100.785 129.83 100.777 129.998 100.777H130.562C130.802 100.777 130.978 100.729 131.09 100.633C131.202 100.537 131.31 100.349 131.414 100.069L131.822 99.0971C131.974 98.6971 132.326 98.4971 132.878 98.4971H133.43V99.4091H133.154C132.978 99.4091 132.846 99.4411 132.758 99.5051C132.67 99.5691 132.59 99.6851 132.518 99.8531L132.302 100.441C132.126 100.913 131.73 101.153 131.114 101.161V101.209C131.466 101.217 131.726 101.277 131.894 101.389C132.07 101.493 132.198 101.673 132.278 101.929L132.53 102.781C132.578 102.949 132.638 103.061 132.71 103.117C132.79 103.173 132.926 103.201 133.118 103.201H133.442V104.113H132.806ZM134.598 104.077V95.6771H137.658C138.378 95.6771 138.95 95.8651 139.374 96.2411C139.798 96.6171 140.01 97.1251 140.01 97.7651C140.01 98.5891 139.658 99.1451 138.954 99.4331C138.762 99.5211 138.546 99.5691 138.306 99.5771V99.6251C138.57 99.6331 138.79 99.6611 138.966 99.7091C139.462 99.8291 139.846 100.069 140.118 100.429C140.39 100.781 140.526 101.225 140.526 101.761C140.526 102.473 140.286 103.037 139.806 103.453C139.334 103.869 138.698 104.077 137.898 104.077H134.598ZM135.666 99.2651C135.754 99.2411 135.854 99.2291 135.966 99.2291H137.322C137.818 99.2291 138.202 99.1131 138.474 98.8811C138.754 98.6491 138.894 98.3251 138.894 97.9091C138.894 97.5171 138.77 97.2171 138.522 97.0091C138.282 96.8011 137.934 96.6971 137.478 96.6971H135.966C135.83 96.6971 135.73 96.6811 135.666 96.6491L135.642 96.6731C135.666 96.7291 135.678 96.8331 135.678 96.9851V98.9531C135.678 99.0811 135.666 99.1811 135.642 99.2531L135.666 99.2651ZM135.666 103.105C135.73 103.073 135.83 103.057 135.966 103.057H137.73C138.834 103.057 139.386 102.597 139.386 101.677C139.386 100.709 138.778 100.225 137.562 100.225H135.966C135.838 100.225 135.738 100.209 135.666 100.177L135.642 100.201C135.666 100.257 135.678 100.357 135.678 100.501V102.769C135.678 102.921 135.666 103.025 135.642 103.081L135.666 103.105ZM141.164 98.5331H146.396V99.4811H144.572C144.412 99.4811 144.3 99.4651 144.236 99.4331L144.224 99.4451C144.264 99.5251 144.284 99.6291 144.284 99.7571V104.077H143.276V99.7571C143.276 99.6291 143.296 99.5251 143.336 99.4451L143.324 99.4331C143.26 99.4651 143.148 99.4811 142.988 99.4811H141.164V98.5331Z"
            fill="black"/>
    <rect x="188.826" y="90.0771" width="34" height="20" rx="4" fill="#414F4F"/>
    <path
            d="M198.697 95.7971C199.673 95.7971 200.429 96.1651 200.965 96.9011C201.509 97.6371 201.781 98.6771 201.781 100.021C201.781 101.365 201.509 102.409 200.965 103.153C200.429 103.889 199.673 104.257 198.697 104.257C197.721 104.257 196.961 103.889 196.417 103.153C195.881 102.409 195.613 101.365 195.613 100.021C195.613 98.6771 195.881 97.6371 196.417 96.9011C196.953 96.1651 197.713 95.7971 198.697 95.7971ZM198.697 97.1651C198.185 97.1651 197.789 97.4171 197.509 97.9211C197.237 98.4171 197.101 99.1171 197.101 100.021C197.101 100.925 197.241 101.629 197.521 102.133C197.801 102.637 198.193 102.889 198.697 102.889C199.201 102.889 199.589 102.637 199.861 102.133C200.141 101.629 200.281 100.925 200.281 100.021C200.281 99.1171 200.141 98.4171 199.861 97.9211C199.589 97.4171 199.201 97.1651 198.697 97.1651ZM205.834 95.7971C206.81 95.7971 207.566 96.1651 208.102 96.9011C208.646 97.6371 208.918 98.6771 208.918 100.021C208.918 101.365 208.646 102.409 208.102 103.153C207.566 103.889 206.81 104.257 205.834 104.257C204.858 104.257 204.098 103.889 203.554 103.153C203.018 102.409 202.75 101.365 202.75 100.021C202.75 98.6771 203.018 97.6371 203.554 96.9011C204.09 96.1651 204.85 95.7971 205.834 95.7971ZM205.834 97.1651C205.322 97.1651 204.926 97.4171 204.646 97.9211C204.374 98.4171 204.238 99.1171 204.238 100.021C204.238 100.925 204.378 101.629 204.658 102.133C204.938 102.637 205.33 102.889 205.834 102.889C206.338 102.889 206.726 102.637 206.998 102.133C207.278 101.629 207.418 100.925 207.418 100.021C207.418 99.1171 207.278 98.4171 206.998 97.9211C206.726 97.4171 206.338 97.1651 205.834 97.1651ZM212.971 95.7971C213.947 95.7971 214.703 96.1651 215.239 96.9011C215.783 97.6371 216.055 98.6771 216.055 100.021C216.055 101.365 215.783 102.409 215.239 103.153C214.703 103.889 213.947 104.257 212.971 104.257C211.995 104.257 211.235 103.889 210.691 103.153C210.155 102.409 209.887 101.365 209.887 100.021C209.887 98.6771 210.155 97.6371 210.691 96.9011C211.227 96.1651 211.987 95.7971 212.971 95.7971ZM212.971 97.1651C212.459 97.1651 212.063 97.4171 211.783 97.9211C211.511 98.4171 211.375 99.1171 211.375 100.021C211.375 100.925 211.515 101.629 211.795 102.133C212.075 102.637 212.467 102.889 212.971 102.889C213.475 102.889 213.863 102.637 214.135 102.133C214.415 101.629 214.555 100.925 214.555 100.021C214.555 99.1171 214.415 98.4171 214.135 97.9211C213.863 97.4171 213.475 97.1651 212.971 97.1651Z"
            fill="white"/>
    <path
            d="M18.6622 118.677V127.077H17.1262V123.657C17.1262 123.489 17.1422 123.377 17.1742 123.321L17.1502 123.297C17.0702 123.337 16.9622 123.357 16.8262 123.357H13.5022C13.3742 123.357 13.2702 123.337 13.1902 123.297L13.1662 123.321C13.1982 123.401 13.2142 123.513 13.2142 123.657V127.077H11.6782V118.677H13.2142V121.617C13.2142 121.761 13.1982 121.873 13.1662 121.953L13.1902 121.977C13.2542 121.945 13.3582 121.929 13.5022 121.929H16.8262C16.9782 121.929 17.0862 121.945 17.1502 121.977L17.1742 121.953C17.1422 121.897 17.1262 121.785 17.1262 121.617V118.677H18.6622ZM22.5458 121.353C23.4258 121.353 24.0618 121.529 24.4538 121.881C24.8458 122.233 25.0418 122.801 25.0418 123.585V127.077H23.5538C23.5538 126.701 23.6138 126.373 23.7338 126.093L23.6858 126.069C23.2778 126.861 22.6418 127.257 21.7778 127.257C21.1858 127.257 20.7058 127.081 20.3378 126.729C19.9778 126.369 19.7978 125.897 19.7978 125.313C19.7978 124.729 19.9778 124.265 20.3378 123.921C20.7058 123.569 21.1938 123.393 21.8018 123.393C22.6498 123.393 23.2698 123.713 23.6618 124.353L23.7098 124.329C23.6458 124.137 23.6138 123.865 23.6138 123.513C23.5738 122.921 23.1658 122.625 22.3898 122.625C21.9578 122.625 21.4098 122.705 20.7458 122.865L20.4578 121.629C21.1778 121.445 21.8738 121.353 22.5458 121.353ZM22.3658 124.401C22.0698 124.401 21.8298 124.481 21.6458 124.641C21.4618 124.801 21.3698 125.009 21.3698 125.265C21.3698 125.521 21.4578 125.729 21.6338 125.889C21.8178 126.041 22.0578 126.117 22.3538 126.117C22.6578 126.117 22.9058 126.037 23.0978 125.877C23.2898 125.717 23.3858 125.509 23.3858 125.253C23.3858 125.005 23.2898 124.801 23.0978 124.641C22.9138 124.481 22.6698 124.401 22.3658 124.401ZM31.6138 121.533V127.077H30.1378V123.129C30.1378 123.001 30.1578 122.897 30.1978 122.817L30.1858 122.805C30.1218 122.837 30.0098 122.853 29.8498 122.853H28.1098C27.9498 122.853 27.8378 122.837 27.7738 122.805L27.7618 122.817C27.8018 122.897 27.8218 123.001 27.8218 123.129V127.077H26.3458V121.533H31.6138ZM36.4112 121.353C37.1872 121.353 37.8192 121.625 38.3072 122.169C38.7952 122.713 39.0392 123.425 39.0392 124.305C39.0392 125.185 38.7952 125.897 38.3072 126.441C37.8272 126.985 37.1992 127.257 36.4232 127.257C35.4392 127.257 34.7592 126.809 34.3832 125.913L34.3352 125.925C34.4072 126.277 34.4432 126.653 34.4432 127.053V129.477H32.9912V121.533H34.4312C34.4312 122.013 34.3952 122.397 34.3232 122.685L34.3712 122.697C34.8032 121.801 35.4832 121.353 36.4112 121.353ZM35.9912 122.697C35.5192 122.697 35.1352 122.845 34.8392 123.141C34.5432 123.437 34.3952 123.825 34.3952 124.305C34.3952 124.785 34.5432 125.173 34.8392 125.469C35.1352 125.765 35.5192 125.913 35.9912 125.913C36.4632 125.913 36.8312 125.769 37.0952 125.481C37.3672 125.193 37.5032 124.801 37.5032 124.305C37.5032 123.809 37.3672 123.417 37.0952 123.129C36.8232 122.841 36.4552 122.697 35.9912 122.697ZM44.729 121.533V127.077H43.253V125.373C43.253 125.245 43.273 125.141 43.313 125.061L43.301 125.049C43.245 125.081 43.133 125.097 42.965 125.097H42.773L41.129 127.077H39.365V127.017L40.673 125.589C40.913 125.317 41.145 125.129 41.369 125.025V124.989C41.193 125.021 41.053 125.017 40.949 124.977C40.549 124.881 40.241 124.685 40.025 124.389C39.817 124.085 39.713 123.733 39.713 123.333C39.713 122.765 39.889 122.325 40.241 122.013C40.601 121.693 41.105 121.533 41.753 121.533H44.729ZM43.313 124.065C43.273 123.985 43.253 123.881 43.253 123.753V122.973C43.253 122.845 43.273 122.741 43.313 122.661L43.301 122.649C43.229 122.681 43.117 122.697 42.965 122.697H42.113C41.553 122.697 41.273 122.917 41.273 123.357C41.273 123.805 41.553 124.029 42.113 124.029H42.965C43.133 124.029 43.245 124.045 43.301 124.077L43.313 124.065ZM45.6479 127.113V125.913H45.8879C46.0319 125.913 46.1399 125.889 46.2119 125.841C46.2839 125.793 46.3519 125.697 46.4159 125.553L46.6199 124.905C46.6999 124.665 46.8279 124.493 47.0039 124.389C47.1879 124.277 47.4719 124.217 47.8559 124.209V124.161C47.4799 124.153 47.1999 124.097 47.0159 123.993C46.8319 123.889 46.7039 123.733 46.6319 123.525L46.4519 123.069C46.3799 122.925 46.3039 122.829 46.2239 122.781C46.1439 122.725 46.0319 122.697 45.8879 122.697H45.6479V121.497H46.4159C46.9679 121.497 47.3319 121.701 47.5079 122.109L47.8799 122.997C47.9759 123.237 48.0679 123.401 48.1559 123.489C48.2519 123.569 48.3919 123.609 48.5759 123.609H48.7439C48.9119 123.609 49.0359 123.617 49.1159 123.633L49.1279 123.621C49.0879 123.461 49.0679 123.301 49.0679 123.141V121.533H50.4119V123.141C50.4119 123.341 50.3919 123.501 50.3519 123.621L50.3639 123.633C50.4439 123.617 50.5679 123.609 50.7359 123.609H50.9039C51.0959 123.609 51.2359 123.569 51.3239 123.489C51.4199 123.401 51.5159 123.237 51.6119 122.997L51.9839 122.109C52.1519 121.701 52.5159 121.497 53.0759 121.497H53.8439V122.697H53.6039C53.4519 122.697 53.3359 122.725 53.2559 122.781C53.1759 122.829 53.1039 122.925 53.0399 123.069L52.8599 123.525C52.7799 123.741 52.6479 123.901 52.4639 124.005C52.2799 124.101 52.0039 124.153 51.6359 124.161V124.209C52.0199 124.217 52.2999 124.273 52.4759 124.377C52.6519 124.481 52.7799 124.657 52.8599 124.905L53.0639 125.553C53.1279 125.697 53.1959 125.793 53.2679 125.841C53.3399 125.889 53.4479 125.913 53.5919 125.913H53.8319V127.113H52.9919C52.3919 127.113 52.0199 126.873 51.8759 126.393L51.5879 125.469C51.5159 125.205 51.4319 125.021 51.3359 124.917C51.2399 124.813 51.0959 124.761 50.9039 124.761H50.7359C50.5679 124.761 50.4439 124.753 50.3639 124.737L50.3519 124.749C50.3919 124.869 50.4119 125.037 50.4119 125.253V127.077H49.0679V125.253C49.0679 125.077 49.0879 124.909 49.1279 124.749L49.1159 124.737C49.0359 124.753 48.9119 124.761 48.7439 124.761H48.5759C48.3839 124.761 48.2399 124.813 48.1439 124.917C48.0479 125.021 47.9639 125.205 47.8919 125.469L47.6159 126.393C47.4639 126.873 47.0919 127.113 46.4999 127.113H45.6479ZM57.12 121.353C57.96 121.353 58.62 121.613 59.1 122.133C59.58 122.653 59.82 123.373 59.82 124.293V124.641H56.388C56.052 124.641 55.82 124.601 55.692 124.521L55.668 124.557L55.716 124.689C55.852 125.537 56.372 125.961 57.276 125.961C57.892 125.961 58.44 125.741 58.92 125.301L59.592 126.357C58.928 126.957 58.156 127.257 57.276 127.257C56.364 127.257 55.632 126.993 55.08 126.465C54.528 125.929 54.252 125.213 54.252 124.317C54.252 123.421 54.516 122.705 55.044 122.169C55.572 121.625 56.264 121.353 57.12 121.353ZM57.072 122.553C56.696 122.553 56.384 122.661 56.136 122.877C55.888 123.085 55.74 123.373 55.692 123.741L55.716 123.765C55.828 123.693 56.028 123.657 56.316 123.657H57.624C58.008 123.657 58.236 123.689 58.308 123.753L58.332 123.729C58.308 123.353 58.184 123.065 57.96 122.865C57.736 122.657 57.44 122.553 57.072 122.553ZM64.735 121.533H66.211V127.077H64.735V125.049C64.735 124.921 64.755 124.817 64.795 124.737L64.783 124.725C64.719 124.757 64.607 124.773 64.447 124.773H62.587C62.427 124.773 62.315 124.757 62.251 124.725L62.239 124.737C62.279 124.817 62.299 124.921 62.299 125.049V127.077H60.835V121.533H62.299V123.189C62.299 123.317 62.279 123.421 62.239 123.501L62.251 123.513C62.315 123.481 62.427 123.465 62.587 123.465H64.447C64.607 123.465 64.719 123.481 64.783 123.513L64.795 123.501C64.755 123.421 64.735 123.317 64.735 123.189V121.533ZM67.6318 127.149V121.533H69.0958V123.405C69.0958 123.981 69.0678 124.413 69.0118 124.701L69.0598 124.713C69.1638 124.513 69.3758 124.265 69.6958 123.969L72.4078 121.461H72.8278V127.077H71.3518V125.205C71.3518 124.629 71.3798 124.197 71.4358 123.909L71.3878 123.897C71.2838 124.097 71.0718 124.345 70.7518 124.641L68.0398 127.149H67.6318ZM76.7255 121.353C77.5655 121.353 78.2255 121.613 78.7055 122.133C79.1855 122.653 79.4255 123.373 79.4255 124.293V124.641H75.9935C75.6575 124.641 75.4255 124.601 75.2975 124.521L75.2735 124.557L75.3215 124.689C75.4575 125.537 75.9775 125.961 76.8815 125.961C77.4975 125.961 78.0455 125.741 78.5255 125.301L79.1975 126.357C78.5335 126.957 77.7615 127.257 76.8815 127.257C75.9695 127.257 75.2375 126.993 74.6855 126.465C74.1335 125.929 73.8575 125.213 73.8575 124.317C73.8575 123.421 74.1215 122.705 74.6495 122.169C75.1775 121.625 75.8695 121.353 76.7255 121.353ZM76.6775 122.553C76.3015 122.553 75.9895 122.661 75.7415 122.877C75.4935 123.085 75.3455 123.373 75.2975 123.741L75.3215 123.765C75.4335 123.693 75.6335 123.657 75.9215 123.657H77.2295C77.6135 123.657 77.8415 123.689 77.9135 123.753L77.9375 123.729C77.9135 123.353 77.7895 123.065 77.5655 122.865C77.3415 122.657 77.0455 122.553 76.6775 122.553ZM86.5269 127.257C85.6229 127.257 84.8869 126.985 84.3189 126.441C83.7509 125.889 83.4669 125.177 83.4669 124.305C83.4669 123.433 83.7509 122.725 84.3189 122.181C84.8869 121.629 85.6229 121.353 86.5269 121.353C87.2309 121.353 87.8789 121.537 88.4709 121.905L87.8349 123.117C87.4509 122.861 87.0229 122.733 86.5509 122.733C86.0869 122.733 85.7069 122.881 85.4109 123.177C85.1229 123.465 84.9789 123.841 84.9789 124.305C84.9789 124.769 85.1229 125.149 85.4109 125.445C85.7069 125.733 86.0869 125.877 86.5509 125.877C87.0229 125.877 87.4509 125.749 87.8349 125.493L88.4709 126.705C87.8789 127.073 87.2309 127.257 86.5269 127.257ZM88.7573 121.533H94.0493V122.853H92.4293C92.2693 122.853 92.1573 122.837 92.0933 122.805L92.0813 122.817C92.1213 122.897 92.1413 123.001 92.1413 123.129V127.077H90.6653V123.129C90.6653 123.001 90.6853 122.897 90.7253 122.817L90.7133 122.805C90.6493 122.837 90.5373 122.853 90.3773 122.853H88.7573V121.533ZM96.8309 121.353C97.7109 121.353 98.3469 121.529 98.7389 121.881C99.1309 122.233 99.3269 122.801 99.3269 123.585V127.077H97.8389C97.8389 126.701 97.8989 126.373 98.0189 126.093L97.9709 126.069C97.5629 126.861 96.9269 127.257 96.0629 127.257C95.4709 127.257 94.9909 127.081 94.6229 126.729C94.2629 126.369 94.0829 125.897 94.0829 125.313C94.0829 124.729 94.2629 124.265 94.6229 123.921C94.9909 123.569 95.4789 123.393 96.0869 123.393C96.9349 123.393 97.5549 123.713 97.9469 124.353L97.9949 124.329C97.9309 124.137 97.8989 123.865 97.8989 123.513C97.8589 122.921 97.4509 122.625 96.6749 122.625C96.2429 122.625 95.6949 122.705 95.0309 122.865L94.7429 121.629C95.4629 121.445 96.1589 121.353 96.8309 121.353ZM96.6509 124.401C96.3549 124.401 96.1149 124.481 95.9309 124.641C95.7469 124.801 95.6549 125.009 95.6549 125.265C95.6549 125.521 95.7429 125.729 95.9189 125.889C96.1029 126.041 96.3429 126.117 96.6389 126.117C96.9429 126.117 97.1909 126.037 97.3829 125.877C97.5749 125.717 97.6709 125.509 97.6709 125.253C97.6709 125.005 97.5749 124.801 97.3829 124.641C97.1989 124.481 96.9549 124.401 96.6509 124.401ZM99.7612 121.533H105.053V122.853H103.433C103.273 122.853 103.161 122.837 103.097 122.805L103.085 122.817C103.125 122.897 103.145 123.001 103.145 123.129V127.077H101.669V123.129C101.669 123.001 101.689 122.897 101.729 122.817L101.717 122.805C101.653 122.837 101.541 122.853 101.381 122.853H99.7612V121.533ZM108.108 121.353C108.948 121.353 109.608 121.613 110.088 122.133C110.568 122.653 110.808 123.373 110.808 124.293V124.641H107.376C107.04 124.641 106.808 124.601 106.68 124.521L106.656 124.557L106.704 124.689C106.84 125.537 107.36 125.961 108.264 125.961C108.88 125.961 109.428 125.741 109.908 125.301L110.58 126.357C109.916 126.957 109.144 127.257 108.264 127.257C107.352 127.257 106.62 126.993 106.068 126.465C105.516 125.929 105.24 125.213 105.24 124.317C105.24 123.421 105.504 122.705 106.032 122.169C106.56 121.625 107.252 121.353 108.108 121.353ZM108.06 122.553C107.684 122.553 107.372 122.661 107.124 122.877C106.876 123.085 106.728 123.373 106.68 123.741L106.704 123.765C106.816 123.693 107.016 123.657 107.304 123.657H108.612C108.996 123.657 109.224 123.689 109.296 123.753L109.32 123.729C109.296 123.353 109.172 123.065 108.948 122.865C108.724 122.657 108.428 122.553 108.06 122.553ZM115.243 121.353C116.019 121.353 116.651 121.625 117.139 122.169C117.627 122.713 117.871 123.425 117.871 124.305C117.871 125.185 117.627 125.897 117.139 126.441C116.659 126.985 116.031 127.257 115.255 127.257C114.271 127.257 113.591 126.809 113.215 125.913L113.167 125.925C113.239 126.277 113.275 126.653 113.275 127.053V129.477H111.823V121.533H113.263C113.263 122.013 113.227 122.397 113.155 122.685L113.203 122.697C113.635 121.801 114.315 121.353 115.243 121.353ZM114.823 122.697C114.351 122.697 113.967 122.845 113.671 123.141C113.375 123.437 113.227 123.825 113.227 124.305C113.227 124.785 113.375 125.173 113.671 125.469C113.967 125.765 114.351 125.913 114.823 125.913C115.295 125.913 115.663 125.769 115.927 125.481C116.199 125.193 116.335 124.801 116.335 124.305C116.335 123.809 116.199 123.417 115.927 123.129C115.655 122.841 115.287 122.697 114.823 122.697ZM121.171 121.353C122.051 121.353 122.687 121.529 123.079 121.881C123.471 122.233 123.667 122.801 123.667 123.585V127.077H122.179C122.179 126.701 122.239 126.373 122.359 126.093L122.311 126.069C121.903 126.861 121.267 127.257 120.403 127.257C119.811 127.257 119.331 127.081 118.963 126.729C118.603 126.369 118.423 125.897 118.423 125.313C118.423 124.729 118.603 124.265 118.963 123.921C119.331 123.569 119.819 123.393 120.427 123.393C121.275 123.393 121.895 123.713 122.287 124.353L122.335 124.329C122.271 124.137 122.239 123.865 122.239 123.513C122.199 122.921 121.791 122.625 121.015 122.625C120.583 122.625 120.035 122.705 119.371 122.865L119.083 121.629C119.803 121.445 120.499 121.353 121.171 121.353ZM120.991 124.401C120.695 124.401 120.455 124.481 120.271 124.641C120.087 124.801 119.995 125.009 119.995 125.265C119.995 125.521 120.083 125.729 120.259 125.889C120.443 126.041 120.683 126.117 120.979 126.117C121.283 126.117 121.531 126.037 121.723 125.877C121.915 125.717 122.011 125.509 122.011 125.253C122.011 125.005 121.915 124.801 121.723 124.641C121.539 124.481 121.295 124.401 120.991 124.401ZM124.791 129.081L125.235 125.877H126.447L125.367 129.081H124.791ZM135.724 127.113C135.116 127.113 134.74 126.861 134.596 126.357L134.32 125.361C134.24 125.081 134.136 124.885 134.008 124.773C133.888 124.653 133.712 124.593 133.48 124.593H132.916C132.748 124.593 132.624 124.585 132.544 124.569L132.532 124.581C132.572 124.757 132.592 124.925 132.592 125.085V127.077H131.572V121.533H132.592V123.309C132.592 123.453 132.572 123.613 132.532 123.789L132.544 123.801C132.624 123.785 132.748 123.777 132.916 123.777H133.48C133.72 123.777 133.896 123.729 134.008 123.633C134.12 123.537 134.228 123.349 134.332 123.069L134.74 122.097C134.892 121.697 135.244 121.497 135.796 121.497H136.348V122.409H136.072C135.896 122.409 135.764 122.441 135.676 122.505C135.588 122.569 135.508 122.685 135.436 122.853L135.22 123.441C135.044 123.913 134.648 124.153 134.032 124.161V124.209C134.384 124.217 134.644 124.277 134.812 124.389C134.988 124.493 135.116 124.673 135.196 124.929L135.448 125.781C135.496 125.949 135.556 126.061 135.628 126.117C135.708 126.173 135.844 126.201 136.036 126.201H136.36V127.113H135.724ZM137.516 127.077V118.677H140.576C141.296 118.677 141.868 118.865 142.292 119.241C142.716 119.617 142.928 120.125 142.928 120.765C142.928 121.589 142.576 122.145 141.872 122.433C141.68 122.521 141.464 122.569 141.224 122.577V122.625C141.488 122.633 141.708 122.661 141.884 122.709C142.38 122.829 142.764 123.069 143.036 123.429C143.308 123.781 143.444 124.225 143.444 124.761C143.444 125.473 143.204 126.037 142.724 126.453C142.252 126.869 141.616 127.077 140.816 127.077H137.516ZM138.584 122.265C138.672 122.241 138.772 122.229 138.884 122.229H140.24C140.736 122.229 141.12 122.113 141.392 121.881C141.672 121.649 141.812 121.325 141.812 120.909C141.812 120.517 141.688 120.217 141.44 120.009C141.2 119.801 140.852 119.697 140.396 119.697H138.884C138.748 119.697 138.648 119.681 138.584 119.649L138.56 119.673C138.584 119.729 138.596 119.833 138.596 119.985V121.953C138.596 122.081 138.584 122.181 138.56 122.253L138.584 122.265ZM138.584 126.105C138.648 126.073 138.748 126.057 138.884 126.057H140.648C141.752 126.057 142.304 125.597 142.304 124.677C142.304 123.709 141.696 123.225 140.48 123.225H138.884C138.756 123.225 138.656 123.209 138.584 123.177L138.56 123.201C138.584 123.257 138.596 123.357 138.596 123.501V125.769C138.596 125.921 138.584 126.025 138.56 126.081L138.584 126.105ZM144.081 121.533H149.313V122.481H147.489C147.329 122.481 147.217 122.465 147.153 122.433L147.141 122.445C147.181 122.525 147.201 122.629 147.201 122.757V127.077H146.193V122.757C146.193 122.629 146.213 122.525 146.253 122.445L146.241 122.433C146.177 122.465 146.065 122.481 145.905 122.481H144.081V121.533Z"
            fill="black"/>
    <rect x="188.826" y="113.077" width="34" height="20" rx="4" fill="#414F4F"/>
    <path
            d="M198.697 118.797C199.673 118.797 200.429 119.165 200.965 119.901C201.509 120.637 201.781 121.677 201.781 123.021C201.781 124.365 201.509 125.409 200.965 126.153C200.429 126.889 199.673 127.257 198.697 127.257C197.721 127.257 196.961 126.889 196.417 126.153C195.881 125.409 195.613 124.365 195.613 123.021C195.613 121.677 195.881 120.637 196.417 119.901C196.953 119.165 197.713 118.797 198.697 118.797ZM198.697 120.165C198.185 120.165 197.789 120.417 197.509 120.921C197.237 121.417 197.101 122.117 197.101 123.021C197.101 123.925 197.241 124.629 197.521 125.133C197.801 125.637 198.193 125.889 198.697 125.889C199.201 125.889 199.589 125.637 199.861 125.133C200.141 124.629 200.281 123.925 200.281 123.021C200.281 122.117 200.141 121.417 199.861 120.921C199.589 120.417 199.201 120.165 198.697 120.165ZM205.834 118.797C206.81 118.797 207.566 119.165 208.102 119.901C208.646 120.637 208.918 121.677 208.918 123.021C208.918 124.365 208.646 125.409 208.102 126.153C207.566 126.889 206.81 127.257 205.834 127.257C204.858 127.257 204.098 126.889 203.554 126.153C203.018 125.409 202.75 124.365 202.75 123.021C202.75 121.677 203.018 120.637 203.554 119.901C204.09 119.165 204.85 118.797 205.834 118.797ZM205.834 120.165C205.322 120.165 204.926 120.417 204.646 120.921C204.374 121.417 204.238 122.117 204.238 123.021C204.238 123.925 204.378 124.629 204.658 125.133C204.938 125.637 205.33 125.889 205.834 125.889C206.338 125.889 206.726 125.637 206.998 125.133C207.278 124.629 207.418 123.925 207.418 123.021C207.418 122.117 207.278 121.417 206.998 120.921C206.726 120.417 206.338 120.165 205.834 120.165ZM212.971 118.797C213.947 118.797 214.703 119.165 215.239 119.901C215.783 120.637 216.055 121.677 216.055 123.021C216.055 124.365 215.783 125.409 215.239 126.153C214.703 126.889 213.947 127.257 212.971 127.257C211.995 127.257 211.235 126.889 210.691 126.153C210.155 125.409 209.887 124.365 209.887 123.021C209.887 121.677 210.155 120.637 210.691 119.901C211.227 119.165 211.987 118.797 212.971 118.797ZM212.971 120.165C212.459 120.165 212.063 120.417 211.783 120.921C211.511 121.417 211.375 122.117 211.375 123.021C211.375 123.925 211.515 124.629 211.795 125.133C212.075 125.637 212.467 125.889 212.971 125.889C213.475 125.889 213.863 125.637 214.135 125.133C214.415 124.629 214.555 123.925 214.555 123.021C214.555 122.117 214.415 121.417 214.135 120.921C213.863 120.417 213.475 120.165 212.971 120.165Z"
            fill="white"/>
    <rect x="1.82617" y="1.07715" width="230" height="148" rx="9" stroke="#8D9595" stroke-width="2"/>
</svg>