<svg width="60" height="101" viewBox="0 0 60 101" fill="none" xmlns="http://www.w3.org/2000/svg">
    <rect x="0.826172" y="0.0744629" width="59" height="100" rx="6.48073" fill="#8D9595"/>
    <path
            d="M12.3262 5.07452L15.1212 6.73344L17.9553 8.32452L17.9162 11.5745L17.9553 14.8245L15.1212 16.4156L12.3262 18.0745L9.53117 16.4156L6.69701 14.8245L6.73617 11.5745L6.69701 8.32452L9.53117 6.73344L12.3262 5.07452Z"
            fill="#677272"/>
    <circle cx="12.3795" cy="11.6286" r="2.56111" fill="#B3B9B9"/>
    <path
            d="M12.3262 82.0745L15.1212 83.7334L17.9553 85.3245L17.9162 88.5745L17.9553 91.8245L15.1212 93.4156L12.3262 95.0745L9.53117 93.4156L6.69701 91.8245L6.73617 88.5745L6.69701 85.3245L9.53117 83.7334L12.3262 82.0745Z"
            fill="#677272"/>
    <circle cx="12.3795" cy="88.6286" r="2.56111" fill="#B3B9B9"/>
    <path
            d="M48.3262 5.07452L51.1212 6.73344L53.9553 8.32452L53.9162 11.5745L53.9553 14.8245L51.1212 16.4156L48.3262 18.0745L45.5312 16.4156L42.697 14.8245L42.7362 11.5745L42.697 8.32452L45.5312 6.73344L48.3262 5.07452Z"
            fill="#677272"/>
    <circle cx="48.3795" cy="11.6286" r="2.56111" fill="#B3B9B9"/>
    <path
            d="M48.3262 82.0745L51.1212 83.7334L53.9553 85.3245L53.9162 88.5745L53.9553 91.8245L51.1212 93.4156L48.3262 95.0745L45.5312 93.4156L42.697 91.8245L42.7362 88.5745L42.697 85.3245L45.5312 83.7334L48.3262 82.0745Z"
            fill="#677272"/>
    <circle cx="48.3795" cy="88.6286" r="2.56111" fill="#B3B9B9"/>
</svg>