<svg width="400" height="250" viewBox="0 0 400 230" fill="none" xmlns="http://www.w3.org/2000/svg">
    <rect width="388" height="9" transform="matrix(1 0 0 -1 11.8257 229.076)" fill="#677272"/>
    <rect width="388" height="3" transform="matrix(1 0 0 -1 11.8257 226.076)" fill="white"/>
    <path
            d="M0.825684 223.576C0.825684 226.613 3.28812 229.076 6.32568 229.076H12.8257V220.076H0.825684V223.576V223.576Z"
            fill="#677272"/>
    <path d="M3.82568 223.076C3.82568 224.732 5.16883 226.076 6.82568 226.076H12.8257V223.076H3.82568V223.076Z"
          fill="white"/>
    <rect x="9.82568" y="220.985" width="9" height="218.91" transform="rotate(180 9.82568 220.985)"
          fill="#677272"/>
    <rect x="6.82568" y="224.576" width="3" height="224.001" transform="rotate(180 6.82568 224.576)"
          fill="white"/>
    <path
            d="M12.8259 273.903C12.8259 277.313 10.0618 280.077 6.65208 280.077H0.825928V269.974H12.8259V273.903V273.903Z"
            fill="#677272"/>
    <path d="M9.82593 273.342C9.82593 275.202 8.31822 276.709 6.45838 276.709H0.825928V273.342H9.82593V273.342Z"
          fill="white"/>

</svg>