<svg width="14" height="15" viewBox="0 0 14 15" fill="none" xmlns="http://www.w3.org/2000/svg">
    <g clip-path="url(#clip0_392_13977)">
        <path d="M8.41394 8.29114C8.38282 8.27143 8.35718 8.24417 8.33939 8.21191C8.32161 8.17964 8.31227 8.14341 8.31223 8.10657V2.21344C8.31223 1.86534 8.17395 1.5315 7.9278 1.28536C7.68166 1.03922 7.34782 0.90094 6.99973 0.90094C6.65163 0.90094 6.31779 1.03922 6.07165 1.28536C5.82551 1.5315 5.68723 1.86534 5.68723 2.21344V8.10657C5.68717 8.14334 5.67784 8.1795 5.66011 8.21171C5.64238 8.24392 5.61682 8.27115 5.58578 8.29086C5.19701 8.54411 4.88106 8.89442 4.66914 9.30717C4.45723 9.71992 4.35669 10.1808 4.37746 10.6443C4.40875 11.3293 4.70682 11.9749 5.20794 12.4429C5.70905 12.911 6.37342 13.1644 7.05894 13.1489C7.74447 13.1334 8.39673 12.8503 8.87622 12.3602C9.35571 11.87 9.62437 11.2116 9.62473 10.5259C9.62492 10.0821 9.51427 9.6452 9.30283 9.25494C9.0914 8.86468 8.78586 8.53339 8.41394 8.29114V8.29114Z" stroke="black" stroke-width="1.00189" stroke-miterlimit="10" stroke-linecap="round"/>
        <path d="M6.99969 3.08881V10.5263" stroke="black" stroke-width="1.00189" stroke-miterlimit="10" stroke-linecap="round"/>
        <path d="M7.00048 11.8394C7.72588 11.8394 8.31394 11.2513 8.31394 10.5259C8.31394 9.80052 7.72588 9.21246 7.00048 9.21246C6.27507 9.21246 5.68701 9.80052 5.68701 10.5259C5.68701 11.2513 6.27507 11.8394 7.00048 11.8394Z" fill="black"/>
    </g>
    <defs>
        <clipPath id="clip0_392_13977">
            <rect width="14" height="14" fill="white" transform="translate(0 0.0249023)"/>
        </clipPath>
    </defs>
</svg>
