<svg width="14" height="15" viewBox="0 0 14 15" fill="none" xmlns="http://www.w3.org/2000/svg">
    <path d="M5.695 5.28168C5.26811 5.76219 5.03232 6.38261 5.03232 7.02536C5.03232 7.66812 5.26811 8.28854 5.695 8.76905" stroke="black" stroke-width="1.00189" stroke-linecap="round" stroke-linejoin="round"/>
    <path d="M8.33508 8.76905C8.76198 8.28854 8.99777 7.66812 8.99777 7.02536C8.99777 6.38261 8.76198 5.76219 8.33508 5.28168" stroke="black" stroke-width="1.00189" stroke-linecap="round" stroke-linejoin="round"/>
    <path d="M4.30104 3.88806C3.50569 4.73896 3.06326 5.86021 3.06326 7.02494C3.06326 8.18967 3.50569 9.31092 4.30104 10.1618" stroke="black" stroke-width="1.00189" stroke-linecap="round" stroke-linejoin="round"/>
    <path d="M9.72781 10.1618C10.5232 9.31092 10.9656 8.18967 10.9656 7.02494C10.9656 5.86021 10.5232 4.73896 9.72781 3.88806" stroke="black" stroke-width="1.00189" stroke-linecap="round" stroke-linejoin="round"/>
    <path d="M11.2666 11.3994C12.3409 10.1953 12.9346 8.638 12.9346 7.02435C12.9346 5.4107 12.3409 3.85346 11.2666 2.64935" stroke="black" stroke-width="1.00189" stroke-linecap="round" stroke-linejoin="round"/>
    <path d="M2.76244 2.64935C1.6882 3.85346 1.09451 5.4107 1.09451 7.02435C1.09451 8.638 1.6882 10.1953 2.76244 11.3994" stroke="black" stroke-width="1.00189" stroke-linecap="round" stroke-linejoin="round"/>
</svg>
