<svg width="14" height="15" viewBox="0 0 14 15" fill="none" xmlns="http://www.w3.org/2000/svg">
    <path d="M10.9371 8.77476C10.9371 11.1911 9.416 12.7123 6.99963 12.7123C4.58327 12.7123 3.06213 11.1911 3.06213 8.77476C3.06213 6.18175 5.88483 2.6812 6.75053 1.66866C6.78134 1.63269 6.81956 1.60381 6.86259 1.58401C6.90561 1.56421 6.95241 1.55396 6.99977 1.55396C7.04713 1.55396 7.09393 1.56421 7.13695 1.58401C7.17998 1.60381 7.2182 1.63269 7.24901 1.66866C8.11444 2.6812 10.9371 6.18175 10.9371 8.77476Z" stroke="black" stroke-width="1.00189" stroke-miterlimit="10"/>
    <path d="M9.40733 8.9931C9.40733 9.51563 9.19976 10.0168 8.83027 10.3862C8.46079 10.7557 7.95966 10.9633 7.43713 10.9633" stroke="black" stroke-width="1.00189" stroke-linecap="round" stroke-linejoin="round"/>
</svg>
