<svg width="112" height="19" viewBox="0 0 112 19" fill="none" xmlns="http://www.w3.org/2000/svg">
    <path d="M17.4127 0.524902H0V4.09575H17.4127V0.524902Z" fill="#FCB53B"/>
    <path d="M17.4127 7.73901H0V11.3099H17.4127V7.73901Z" fill="#F57F29"/>
    <path d="M17.4127 14.9539H0V18.5248H17.4127V14.9539Z" fill="#E32213"/>
    <path d="M24.3914 0.524902V18.5249H38.7022V14.9541H27.8458V11.3103H38.7022V7.73948H27.8458V4.09575H38.7022V0.524902H24.3914Z" fill="black"/>
    <path fill-rule="evenodd" clip-rule="evenodd" d="M82.4107 0.524902L75.7136 18.5249H79.7319L81.0713 14.8812H89.1784L90.5178 18.452H94.4657L87.3455 0.524902H82.4107ZM85.0896 4.09575L87.839 11.3103H82.3402L85.0896 4.09575Z" fill="black"/>
    <path d="M96.8626 18.5246V14.808H106.168C107.085 14.808 107.86 14.0064 107.86 13.059C107.86 12.1116 107.085 11.31 106.168 11.31H98.6251V7.73916H106.168C107.085 7.73916 107.86 6.93754 107.86 5.99018C107.86 5.04281 107.085 4.24119 106.168 4.24119H96.8626V0.597464H106.309C109.129 0.597464 111.526 3.00232 111.526 5.9173C111.526 7.30192 111.244 8.46791 109.411 9.56103C111.032 10.4355 111.526 11.8201 111.526 13.2048C111.526 16.557 109.129 18.5246 106.309 18.5246H96.8626Z" fill="black"/>
    <path fill-rule="evenodd" clip-rule="evenodd" d="M70.9193 0.524902H61.3318V18.5249H64.7861V11.3103H70.9193C73.8097 11.3103 76.1361 8.90547 76.1361 5.91761C76.1361 2.92976 73.8097 0.524902 70.9193 0.524902ZM70.7783 7.73948H64.7861V4.16863H70.7783C71.6948 4.16863 72.4702 4.97025 72.4702 5.91761C72.4702 6.93786 71.6948 7.73948 70.7783 7.73948Z" fill="black"/>
    <path fill-rule="evenodd" clip-rule="evenodd" d="M57.5958 5.84474C57.5958 7.22936 57.3139 8.39535 55.4809 9.48847C57.1024 10.4358 57.7368 11.8204 57.8073 13.2051C57.8073 16.5573 55.4104 18.5249 52.5906 18.5249H42.8621V0.524902H52.3791C55.199 0.524902 57.5958 2.92976 57.5958 5.84474ZM52.1676 4.16863H46.3164V7.6666H52.1676C53.0841 7.6666 53.8595 6.86498 53.8595 5.91761C53.8595 4.97025 53.0841 4.16863 52.1676 4.16863ZM46.3164 14.8812H52.3791C53.366 14.8812 54.1415 14.0796 54.071 13.0593C54.071 12.1119 53.2955 11.3103 52.3791 11.3103H46.3164V14.8812Z" fill="black"/>
</svg>
