<svg width="16" height="17" viewBox="0 0 16 17" fill="none" xmlns="http://www.w3.org/2000/svg">
    <path fill-rule="evenodd" clip-rule="evenodd"
          d="M2.58585 1.77738C2.96092 1.4023 3.46963 1.19159 4.00006 1.19159H9.3334C9.51021 1.19159 9.67978 1.26183 9.8048 1.38685L13.8048 5.38685C13.9298 5.51188 14.0001 5.68144 14.0001 5.85826V13.8583C14.0001 14.3887 13.7893 14.8974 13.4143 15.2725C13.0392 15.6475 12.5305 15.8583 12.0001 15.8583H4.00006C3.46963 15.8583 2.96092 15.6475 2.58585 15.2725C2.21077 14.8974 2.00006 14.3887 2.00006 13.8583V3.19159C2.00006 2.66116 2.21077 2.15245 2.58585 1.77738ZM4.00006 2.52492C3.82325 2.52492 3.65368 2.59516 3.52866 2.72018C3.40363 2.84521 3.33339 3.01478 3.33339 3.19159V13.8583C3.33339 14.0351 3.40363 14.2046 3.52866 14.3297C3.65368 14.4547 3.82325 14.5249 4.00006 14.5249H12.0001C12.1769 14.5249 12.3464 14.4547 12.4715 14.3297C12.5965 14.2046 12.6667 14.0351 12.6667 13.8583V6.52492H9.3334C8.96521 6.52492 8.66673 6.22645 8.66673 5.85826V2.52492H4.00006ZM10.0001 3.46773L11.7239 5.19159H10.0001V3.46773ZM4.66673 6.52492C4.66673 6.15673 4.9652 5.85826 5.33339 5.85826H6.66673C7.03492 5.85826 7.3334 6.15673 7.3334 6.52492C7.3334 6.89311 7.03492 7.19159 6.66673 7.19159H5.33339C4.9652 7.19159 4.66673 6.89311 4.66673 6.52492ZM4.66673 9.19159C4.66673 8.8234 4.9652 8.52492 5.33339 8.52492H10.6667C11.0349 8.52492 11.3334 8.8234 11.3334 9.19159C11.3334 9.55978 11.0349 9.85826 10.6667 9.85826H5.33339C4.9652 9.85826 4.66673 9.55978 4.66673 9.19159ZM4.66673 11.8583C4.66673 11.4901 4.9652 11.1916 5.33339 11.1916H10.6667C11.0349 11.1916 11.3334 11.4901 11.3334 11.8583C11.3334 12.2264 11.0349 12.5249 10.6667 12.5249H5.33339C4.9652 12.5249 4.66673 12.2264 4.66673 11.8583Z"
          fill="#FFE3B4"/>
</svg>